<?xml version="1.0" encoding="utf-8" standalone="no"?>
<!DOCTYPE svg PUBLIC "-//W3C//DTD SVG 1.1//EN"
  "http://www.w3.org/Graphics/SVG/1.1/DTD/svg11.dtd">
<!-- Created with matplotlib (http://matplotlib.org/) -->
<svg height="264.630625pt" version="1.1" viewBox="0 0 387.417188 264.630625" width="387.417188pt" xmlns="http://www.w3.org/2000/svg" xmlns:xlink="http://www.w3.org/1999/xlink">
 <defs>
  <style type="text/css">
*{stroke-linecap:butt;stroke-linejoin:round;}
  </style>
 </defs>
 <g id="figure_1">
  <g id="patch_1">
   <path d="M 0 264.630625 
L 387.417188 264.630625 
L 387.417188 0 
L 0 0 
z
" style="fill:none;"/>
  </g>
  <g id="axes_1">
   <g id="patch_2">
    <path d="M 38.467188 228.14 
L 373.267188 228.14 
L 373.267188 10.7 
L 38.467188 10.7 
z
" style="fill:#ffffff;"/>
   </g>
   <g id="matplotlib.axis_1">
    <g id="xtick_1">
     <g id="line2d_1">
      <defs>
       <path d="M 0 0 
L 0 3.5 
" id="md2cce1ffde" style="stroke:#000000;stroke-width:0.8;"/>
      </defs>
      <g>
       <use style="stroke:#000000;stroke-width:0.8;" x="38.467188" xlink:href="#md2cce1ffde" y="228.14"/>
      </g>
     </g>
     <g id="text_1">
      <!-- −0.1 -->
      <defs>
       <path d="M 52.828125 31.203125 
L 5.5625 31.203125 
L 5.5625 39.40625 
L 52.828125 39.40625 
z
" id="ArialMT-2212"/>
       <path d="M 4.15625 35.296875 
Q 4.15625 48 6.765625 55.734375 
Q 9.375 63.484375 14.515625 67.671875 
Q 19.671875 71.875 27.484375 71.875 
Q 33.25 71.875 37.59375 69.546875 
Q 41.9375 67.234375 44.765625 62.859375 
Q 47.609375 58.5 49.21875 52.21875 
Q 50.828125 45.953125 50.828125 35.296875 
Q 50.828125 22.703125 48.234375 14.96875 
Q 45.65625 7.234375 40.5 3 
Q 35.359375 -1.21875 27.484375 -1.21875 
Q 17.140625 -1.21875 11.234375 6.203125 
Q 4.15625 15.140625 4.15625 35.296875 
z
M 13.1875 35.296875 
Q 13.1875 17.671875 17.3125 11.828125 
Q 21.4375 6 27.484375 6 
Q 33.546875 6 37.671875 11.859375 
Q 41.796875 17.71875 41.796875 35.296875 
Q 41.796875 52.984375 37.671875 58.78125 
Q 33.546875 64.59375 27.390625 64.59375 
Q 21.34375 64.59375 17.71875 59.46875 
Q 13.1875 52.9375 13.1875 35.296875 
z
" id="ArialMT-30"/>
       <path d="M 9.078125 0 
L 9.078125 10.015625 
L 19.09375 10.015625 
L 19.09375 0 
z
" id="ArialMT-2e"/>
       <path d="M 37.25 0 
L 28.46875 0 
L 28.46875 56 
Q 25.296875 52.984375 20.140625 49.953125 
Q 14.984375 46.921875 10.890625 45.40625 
L 10.890625 53.90625 
Q 18.265625 57.375 23.78125 62.296875 
Q 29.296875 67.234375 31.59375 71.875 
L 37.25 71.875 
z
" id="ArialMT-31"/>
      </defs>
      <g transform="translate(28.596875 242.297812)scale(0.1 -0.1)">
       <use xlink:href="#ArialMT-2212"/>
       <use x="58.398438" xlink:href="#ArialMT-30"/>
       <use x="114.013672" xlink:href="#ArialMT-2e"/>
       <use x="141.796875" xlink:href="#ArialMT-31"/>
      </g>
     </g>
    </g>
    <g id="xtick_2">
     <g id="line2d_2">
      <g>
       <use style="stroke:#000000;stroke-width:0.8;" x="86.295759" xlink:href="#md2cce1ffde" y="228.14"/>
      </g>
     </g>
     <g id="text_2">
      <!-- 0.0 -->
      <g transform="translate(79.345759 242.297812)scale(0.1 -0.1)">
       <use xlink:href="#ArialMT-30"/>
       <use x="55.615234" xlink:href="#ArialMT-2e"/>
       <use x="83.398438" xlink:href="#ArialMT-30"/>
      </g>
     </g>
    </g>
    <g id="xtick_3">
     <g id="line2d_3">
      <g>
       <use style="stroke:#000000;stroke-width:0.8;" x="134.12433" xlink:href="#md2cce1ffde" y="228.14"/>
      </g>
     </g>
     <g id="text_3">
      <!-- 0.1 -->
      <g transform="translate(127.17433 242.297812)scale(0.1 -0.1)">
       <use xlink:href="#ArialMT-30"/>
       <use x="55.615234" xlink:href="#ArialMT-2e"/>
       <use x="83.398438" xlink:href="#ArialMT-31"/>
      </g>
     </g>
    </g>
    <g id="xtick_4">
     <g id="line2d_4">
      <g>
       <use style="stroke:#000000;stroke-width:0.8;" x="181.952902" xlink:href="#md2cce1ffde" y="228.14"/>
      </g>
     </g>
     <g id="text_4">
      <!-- 0.2 -->
      <defs>
       <path d="M 50.34375 8.453125 
L 50.34375 0 
L 3.03125 0 
Q 2.9375 3.171875 4.046875 6.109375 
Q 5.859375 10.9375 9.828125 15.625 
Q 13.8125 20.3125 21.34375 26.46875 
Q 33.015625 36.03125 37.109375 41.625 
Q 41.21875 47.21875 41.21875 52.203125 
Q 41.21875 57.421875 37.46875 61 
Q 33.734375 64.59375 27.734375 64.59375 
Q 21.390625 64.59375 17.578125 60.78125 
Q 13.765625 56.984375 13.71875 50.25 
L 4.6875 51.171875 
Q 5.609375 61.28125 11.65625 66.578125 
Q 17.71875 71.875 27.9375 71.875 
Q 38.234375 71.875 44.234375 66.15625 
Q 50.25 60.453125 50.25 52 
Q 50.25 47.703125 48.484375 43.546875 
Q 46.734375 39.40625 42.65625 34.8125 
Q 38.578125 30.21875 29.109375 22.21875 
Q 21.1875 15.578125 18.9375 13.203125 
Q 16.703125 10.84375 15.234375 8.453125 
z
" id="ArialMT-32"/>
      </defs>
      <g transform="translate(175.002902 242.297812)scale(0.1 -0.1)">
       <use xlink:href="#ArialMT-30"/>
       <use x="55.615234" xlink:href="#ArialMT-2e"/>
       <use x="83.398438" xlink:href="#ArialMT-32"/>
      </g>
     </g>
    </g>
    <g id="xtick_5">
     <g id="line2d_5">
      <g>
       <use style="stroke:#000000;stroke-width:0.8;" x="229.781473" xlink:href="#md2cce1ffde" y="228.14"/>
      </g>
     </g>
     <g id="text_5">
      <!-- 0.3 -->
      <defs>
       <path d="M 4.203125 18.890625 
L 12.984375 20.0625 
Q 14.5 12.59375 18.140625 9.296875 
Q 21.78125 6 27 6 
Q 33.203125 6 37.46875 10.296875 
Q 41.75 14.59375 41.75 20.953125 
Q 41.75 27 37.796875 30.921875 
Q 33.84375 34.859375 27.734375 34.859375 
Q 25.25 34.859375 21.53125 33.890625 
L 22.515625 41.609375 
Q 23.390625 41.5 23.921875 41.5 
Q 29.546875 41.5 34.03125 44.421875 
Q 38.53125 47.359375 38.53125 53.46875 
Q 38.53125 58.296875 35.25 61.46875 
Q 31.984375 64.65625 26.8125 64.65625 
Q 21.6875 64.65625 18.265625 61.421875 
Q 14.84375 58.203125 13.875 51.765625 
L 5.078125 53.328125 
Q 6.6875 62.15625 12.390625 67.015625 
Q 18.109375 71.875 26.609375 71.875 
Q 32.46875 71.875 37.390625 69.359375 
Q 42.328125 66.84375 44.9375 62.5 
Q 47.5625 58.15625 47.5625 53.265625 
Q 47.5625 48.640625 45.0625 44.828125 
Q 42.578125 41.015625 37.703125 38.765625 
Q 44.046875 37.3125 47.5625 32.6875 
Q 51.078125 28.078125 51.078125 21.140625 
Q 51.078125 11.765625 44.234375 5.25 
Q 37.40625 -1.265625 26.953125 -1.265625 
Q 17.53125 -1.265625 11.296875 4.34375 
Q 5.078125 9.96875 4.203125 18.890625 
z
" id="ArialMT-33"/>
      </defs>
      <g transform="translate(222.831473 242.297812)scale(0.1 -0.1)">
       <use xlink:href="#ArialMT-30"/>
       <use x="55.615234" xlink:href="#ArialMT-2e"/>
       <use x="83.398438" xlink:href="#ArialMT-33"/>
      </g>
     </g>
    </g>
    <g id="xtick_6">
     <g id="line2d_6">
      <g>
       <use style="stroke:#000000;stroke-width:0.8;" x="277.610045" xlink:href="#md2cce1ffde" y="228.14"/>
      </g>
     </g>
     <g id="text_6">
      <!-- 0.4 -->
      <defs>
       <path d="M 32.328125 0 
L 32.328125 17.140625 
L 1.265625 17.140625 
L 1.265625 25.203125 
L 33.9375 71.578125 
L 41.109375 71.578125 
L 41.109375 25.203125 
L 50.78125 25.203125 
L 50.78125 17.140625 
L 41.109375 17.140625 
L 41.109375 0 
z
M 32.328125 25.203125 
L 32.328125 57.46875 
L 9.90625 25.203125 
z
" id="ArialMT-34"/>
      </defs>
      <g transform="translate(270.660045 242.297812)scale(0.1 -0.1)">
       <use xlink:href="#ArialMT-30"/>
       <use x="55.615234" xlink:href="#ArialMT-2e"/>
       <use x="83.398438" xlink:href="#ArialMT-34"/>
      </g>
     </g>
    </g>
    <g id="xtick_7">
     <g id="line2d_7">
      <g>
       <use style="stroke:#000000;stroke-width:0.8;" x="325.438616" xlink:href="#md2cce1ffde" y="228.14"/>
      </g>
     </g>
     <g id="text_7">
      <!-- 0.5 -->
      <defs>
       <path d="M 4.15625 18.75 
L 13.375 19.53125 
Q 14.40625 12.796875 18.140625 9.390625 
Q 21.875 6 27.15625 6 
Q 33.5 6 37.890625 10.78125 
Q 42.28125 15.578125 42.28125 23.484375 
Q 42.28125 31 38.0625 35.34375 
Q 33.84375 39.703125 27 39.703125 
Q 22.75 39.703125 19.328125 37.765625 
Q 15.921875 35.84375 13.96875 32.765625 
L 5.71875 33.84375 
L 12.640625 70.609375 
L 48.25 70.609375 
L 48.25 62.203125 
L 19.671875 62.203125 
L 15.828125 42.96875 
Q 22.265625 47.46875 29.34375 47.46875 
Q 38.71875 47.46875 45.15625 40.96875 
Q 51.609375 34.46875 51.609375 24.265625 
Q 51.609375 14.546875 45.953125 7.46875 
Q 39.0625 -1.21875 27.15625 -1.21875 
Q 17.390625 -1.21875 11.203125 4.25 
Q 5.03125 9.71875 4.15625 18.75 
z
" id="ArialMT-35"/>
      </defs>
      <g transform="translate(318.488616 242.297812)scale(0.1 -0.1)">
       <use xlink:href="#ArialMT-30"/>
       <use x="55.615234" xlink:href="#ArialMT-2e"/>
       <use x="83.398438" xlink:href="#ArialMT-35"/>
      </g>
     </g>
    </g>
    <g id="xtick_8">
     <g id="line2d_8">
      <g>
       <use style="stroke:#000000;stroke-width:0.8;" x="373.267188" xlink:href="#md2cce1ffde" y="228.14"/>
      </g>
     </g>
     <g id="text_8">
      <!-- 0.6 -->
      <defs>
       <path d="M 49.75 54.046875 
L 41.015625 53.375 
Q 39.84375 58.546875 37.703125 60.890625 
Q 34.125 64.65625 28.90625 64.65625 
Q 24.703125 64.65625 21.53125 62.3125 
Q 17.390625 59.28125 14.984375 53.46875 
Q 12.59375 47.65625 12.5 36.921875 
Q 15.671875 41.75 20.265625 44.09375 
Q 24.859375 46.4375 29.890625 46.4375 
Q 38.671875 46.4375 44.84375 39.96875 
Q 51.03125 33.5 51.03125 23.25 
Q 51.03125 16.5 48.125 10.71875 
Q 45.21875 4.9375 40.140625 1.859375 
Q 35.0625 -1.21875 28.609375 -1.21875 
Q 17.625 -1.21875 10.6875 6.859375 
Q 3.765625 14.9375 3.765625 33.5 
Q 3.765625 54.25 11.421875 63.671875 
Q 18.109375 71.875 29.4375 71.875 
Q 37.890625 71.875 43.28125 67.140625 
Q 48.6875 62.40625 49.75 54.046875 
z
M 13.875 23.1875 
Q 13.875 18.65625 15.796875 14.5 
Q 17.71875 10.359375 21.1875 8.171875 
Q 24.65625 6 28.46875 6 
Q 34.03125 6 38.03125 10.484375 
Q 42.046875 14.984375 42.046875 22.703125 
Q 42.046875 30.125 38.078125 34.390625 
Q 34.125 38.671875 28.125 38.671875 
Q 22.171875 38.671875 18.015625 34.390625 
Q 13.875 30.125 13.875 23.1875 
z
" id="ArialMT-36"/>
      </defs>
      <g transform="translate(366.317188 242.297812)scale(0.1 -0.1)">
       <use xlink:href="#ArialMT-30"/>
       <use x="55.615234" xlink:href="#ArialMT-2e"/>
       <use x="83.398438" xlink:href="#ArialMT-36"/>
      </g>
     </g>
    </g>
    <g id="text_9">
     <!-- external_parameter -->
     <defs>
      <path d="M 42.09375 16.703125 
L 51.171875 15.578125 
Q 49.03125 7.625 43.21875 3.21875 
Q 37.40625 -1.171875 28.375 -1.171875 
Q 17 -1.171875 10.328125 5.828125 
Q 3.65625 12.84375 3.65625 25.484375 
Q 3.65625 38.578125 10.390625 45.796875 
Q 17.140625 53.03125 27.875 53.03125 
Q 38.28125 53.03125 44.875 45.953125 
Q 51.46875 38.875 51.46875 26.03125 
Q 51.46875 25.25 51.421875 23.6875 
L 12.75 23.6875 
Q 13.234375 15.140625 17.578125 10.59375 
Q 21.921875 6.0625 28.421875 6.0625 
Q 33.25 6.0625 36.671875 8.59375 
Q 40.09375 11.140625 42.09375 16.703125 
z
M 13.234375 30.90625 
L 42.1875 30.90625 
Q 41.609375 37.453125 38.875 40.71875 
Q 34.671875 45.796875 27.984375 45.796875 
Q 21.921875 45.796875 17.796875 41.75 
Q 13.671875 37.703125 13.234375 30.90625 
z
" id="ArialMT-65"/>
      <path d="M 0.734375 0 
L 19.671875 26.953125 
L 2.15625 51.859375 
L 13.140625 51.859375 
L 21.09375 39.703125 
Q 23.34375 36.234375 24.703125 33.890625 
Q 26.859375 37.109375 28.65625 39.59375 
L 37.40625 51.859375 
L 47.90625 51.859375 
L 29.984375 27.4375 
L 49.265625 0 
L 38.484375 0 
L 27.828125 16.109375 
L 25 20.453125 
L 11.375 0 
z
" id="ArialMT-78"/>
      <path d="M 25.78125 7.859375 
L 27.046875 0.09375 
Q 23.34375 -0.6875 20.40625 -0.6875 
Q 15.625 -0.6875 12.984375 0.828125 
Q 10.359375 2.34375 9.28125 4.8125 
Q 8.203125 7.28125 8.203125 15.1875 
L 8.203125 45.015625 
L 1.765625 45.015625 
L 1.765625 51.859375 
L 8.203125 51.859375 
L 8.203125 64.703125 
L 16.9375 69.96875 
L 16.9375 51.859375 
L 25.78125 51.859375 
L 25.78125 45.015625 
L 16.9375 45.015625 
L 16.9375 14.703125 
Q 16.9375 10.9375 17.40625 9.859375 
Q 17.875 8.796875 18.921875 8.15625 
Q 19.96875 7.515625 21.921875 7.515625 
Q 23.390625 7.515625 25.78125 7.859375 
z
" id="ArialMT-74"/>
      <path d="M 6.5 0 
L 6.5 51.859375 
L 14.40625 51.859375 
L 14.40625 44 
Q 17.4375 49.515625 20 51.265625 
Q 22.5625 53.03125 25.640625 53.03125 
Q 30.078125 53.03125 34.671875 50.203125 
L 31.640625 42.046875 
Q 28.421875 43.953125 25.203125 43.953125 
Q 22.3125 43.953125 20.015625 42.21875 
Q 17.71875 40.484375 16.75 37.40625 
Q 15.28125 32.71875 15.28125 27.15625 
L 15.28125 0 
z
" id="ArialMT-72"/>
      <path d="M 6.59375 0 
L 6.59375 51.859375 
L 14.5 51.859375 
L 14.5 44.484375 
Q 20.21875 53.03125 31 53.03125 
Q 35.6875 53.03125 39.625 51.34375 
Q 43.5625 49.65625 45.515625 46.921875 
Q 47.46875 44.1875 48.25 40.4375 
Q 48.734375 37.984375 48.734375 31.890625 
L 48.734375 0 
L 39.9375 0 
L 39.9375 31.546875 
Q 39.9375 36.921875 38.90625 39.578125 
Q 37.890625 42.234375 35.28125 43.8125 
Q 32.671875 45.40625 29.15625 45.40625 
Q 23.53125 45.40625 19.453125 41.84375 
Q 15.375 38.28125 15.375 28.328125 
L 15.375 0 
z
" id="ArialMT-6e"/>
      <path d="M 40.4375 6.390625 
Q 35.546875 2.25 31.03125 0.53125 
Q 26.515625 -1.171875 21.34375 -1.171875 
Q 12.796875 -1.171875 8.203125 3 
Q 3.609375 7.171875 3.609375 13.671875 
Q 3.609375 17.484375 5.34375 20.625 
Q 7.078125 23.78125 9.890625 25.6875 
Q 12.703125 27.59375 16.21875 28.5625 
Q 18.796875 29.25 24.03125 29.890625 
Q 34.671875 31.15625 39.703125 32.90625 
Q 39.75 34.71875 39.75 35.203125 
Q 39.75 40.578125 37.25 42.78125 
Q 33.890625 45.75 27.25 45.75 
Q 21.046875 45.75 18.09375 43.578125 
Q 15.140625 41.40625 13.71875 35.890625 
L 5.125 37.0625 
Q 6.296875 42.578125 8.984375 45.96875 
Q 11.671875 49.359375 16.75 51.1875 
Q 21.828125 53.03125 28.515625 53.03125 
Q 35.15625 53.03125 39.296875 51.46875 
Q 43.453125 49.90625 45.40625 47.53125 
Q 47.359375 45.171875 48.140625 41.546875 
Q 48.578125 39.3125 48.578125 33.453125 
L 48.578125 21.734375 
Q 48.578125 9.46875 49.140625 6.21875 
Q 49.703125 2.984375 51.375 0 
L 42.1875 0 
Q 40.828125 2.734375 40.4375 6.390625 
z
M 39.703125 26.03125 
Q 34.90625 24.078125 25.34375 22.703125 
Q 19.921875 21.921875 17.671875 20.9375 
Q 15.4375 19.96875 14.203125 18.09375 
Q 12.984375 16.21875 12.984375 13.921875 
Q 12.984375 10.40625 15.640625 8.0625 
Q 18.3125 5.71875 23.4375 5.71875 
Q 28.515625 5.71875 32.46875 7.9375 
Q 36.421875 10.15625 38.28125 14.015625 
Q 39.703125 17 39.703125 22.796875 
z
" id="ArialMT-61"/>
      <path d="M 6.390625 0 
L 6.390625 71.578125 
L 15.1875 71.578125 
L 15.1875 0 
z
" id="ArialMT-6c"/>
      <path d="M -1.515625 -19.875 
L -1.515625 -13.53125 
L 56.734375 -13.53125 
L 56.734375 -19.875 
z
" id="ArialMT-5f"/>
      <path d="M 6.59375 -19.875 
L 6.59375 51.859375 
L 14.59375 51.859375 
L 14.59375 45.125 
Q 17.4375 49.078125 21 51.046875 
Q 24.5625 53.03125 29.640625 53.03125 
Q 36.28125 53.03125 41.359375 49.609375 
Q 46.4375 46.1875 49.015625 39.953125 
Q 51.609375 33.734375 51.609375 26.3125 
Q 51.609375 18.359375 48.75 11.984375 
Q 45.90625 5.609375 40.453125 2.21875 
Q 35.015625 -1.171875 29 -1.171875 
Q 24.609375 -1.171875 21.109375 0.6875 
Q 17.625 2.546875 15.375 5.375 
L 15.375 -19.875 
z
M 14.546875 25.640625 
Q 14.546875 15.625 18.59375 10.84375 
Q 22.65625 6.0625 28.421875 6.0625 
Q 34.28125 6.0625 38.453125 11.015625 
Q 42.625 15.96875 42.625 26.375 
Q 42.625 36.28125 38.546875 41.203125 
Q 34.46875 46.140625 28.8125 46.140625 
Q 23.1875 46.140625 18.859375 40.890625 
Q 14.546875 35.640625 14.546875 25.640625 
z
" id="ArialMT-70"/>
      <path d="M 6.59375 0 
L 6.59375 51.859375 
L 14.453125 51.859375 
L 14.453125 44.578125 
Q 16.890625 48.390625 20.9375 50.703125 
Q 25 53.03125 30.171875 53.03125 
Q 35.9375 53.03125 39.625 50.640625 
Q 43.3125 48.25 44.828125 43.953125 
Q 50.984375 53.03125 60.84375 53.03125 
Q 68.5625 53.03125 72.703125 48.75 
Q 76.859375 44.484375 76.859375 35.59375 
L 76.859375 0 
L 68.109375 0 
L 68.109375 32.671875 
Q 68.109375 37.9375 67.25 40.25 
Q 66.40625 42.578125 64.15625 43.984375 
Q 61.921875 45.40625 58.890625 45.40625 
Q 53.421875 45.40625 49.796875 41.765625 
Q 46.1875 38.140625 46.1875 30.125 
L 46.1875 0 
L 37.40625 0 
L 37.40625 33.6875 
Q 37.40625 39.546875 35.25 42.46875 
Q 33.109375 45.40625 28.21875 45.40625 
Q 24.515625 45.40625 21.359375 43.453125 
Q 18.21875 41.5 16.796875 37.734375 
Q 15.375 33.984375 15.375 26.90625 
L 15.375 0 
z
" id="ArialMT-6d"/>
     </defs>
     <g transform="translate(162.514062 255.443125)scale(0.1 -0.1)">
      <use xlink:href="#ArialMT-65"/>
      <use x="55.615234" xlink:href="#ArialMT-78"/>
      <use x="105.615234" xlink:href="#ArialMT-74"/>
      <use x="133.398438" xlink:href="#ArialMT-65"/>
      <use x="189.013672" xlink:href="#ArialMT-72"/>
      <use x="222.314453" xlink:href="#ArialMT-6e"/>
      <use x="277.929688" xlink:href="#ArialMT-61"/>
      <use x="333.544922" xlink:href="#ArialMT-6c"/>
      <use x="355.761719" xlink:href="#ArialMT-5f"/>
      <use x="411.376953" xlink:href="#ArialMT-70"/>
      <use x="466.992188" xlink:href="#ArialMT-61"/>
      <use x="522.607422" xlink:href="#ArialMT-72"/>
      <use x="555.908203" xlink:href="#ArialMT-61"/>
      <use x="611.523438" xlink:href="#ArialMT-6d"/>
      <use x="694.824219" xlink:href="#ArialMT-65"/>
      <use x="750.439453" xlink:href="#ArialMT-74"/>
      <use x="778.222656" xlink:href="#ArialMT-65"/>
      <use x="833.837891" xlink:href="#ArialMT-72"/>
     </g>
    </g>
   </g>
   <g id="matplotlib.axis_2">
    <g id="ytick_1">
     <g id="line2d_9">
      <defs>
       <path d="M 0 0 
L -3.5 0 
" id="m7ba3e47879" style="stroke:#000000;stroke-width:0.8;"/>
      </defs>
      <g>
       <use style="stroke:#000000;stroke-width:0.8;" x="38.467188" xlink:href="#m7ba3e47879" y="228.14"/>
      </g>
     </g>
     <g id="text_10">
      <!-- 0 -->
      <g transform="translate(25.90625 231.718906)scale(0.1 -0.1)">
       <use xlink:href="#ArialMT-30"/>
      </g>
     </g>
    </g>
    <g id="ytick_2">
     <g id="line2d_10">
      <g>
       <use style="stroke:#000000;stroke-width:0.8;" x="38.467188" xlink:href="#m7ba3e47879" y="202.57501"/>
      </g>
     </g>
     <g id="text_11">
      <!-- 2 -->
      <g transform="translate(25.90625 206.153917)scale(0.1 -0.1)">
       <use xlink:href="#ArialMT-32"/>
      </g>
     </g>
    </g>
    <g id="ytick_3">
     <g id="line2d_11">
      <g>
       <use style="stroke:#000000;stroke-width:0.8;" x="38.467188" xlink:href="#m7ba3e47879" y="177.010021"/>
      </g>
     </g>
     <g id="text_12">
      <!-- 4 -->
      <g transform="translate(25.90625 180.588927)scale(0.1 -0.1)">
       <use xlink:href="#ArialMT-34"/>
      </g>
     </g>
    </g>
    <g id="ytick_4">
     <g id="line2d_12">
      <g>
       <use style="stroke:#000000;stroke-width:0.8;" x="38.467188" xlink:href="#m7ba3e47879" y="151.445031"/>
      </g>
     </g>
     <g id="text_13">
      <!-- 6 -->
      <g transform="translate(25.90625 155.023937)scale(0.1 -0.1)">
       <use xlink:href="#ArialMT-36"/>
      </g>
     </g>
    </g>
    <g id="ytick_5">
     <g id="line2d_13">
      <g>
       <use style="stroke:#000000;stroke-width:0.8;" x="38.467188" xlink:href="#m7ba3e47879" y="125.880041"/>
      </g>
     </g>
     <g id="text_14">
      <!-- 8 -->
      <defs>
       <path d="M 17.671875 38.8125 
Q 12.203125 40.828125 9.5625 44.53125 
Q 6.9375 48.25 6.9375 53.421875 
Q 6.9375 61.234375 12.546875 66.546875 
Q 18.171875 71.875 27.484375 71.875 
Q 36.859375 71.875 42.578125 66.421875 
Q 48.296875 60.984375 48.296875 53.171875 
Q 48.296875 48.1875 45.671875 44.5 
Q 43.0625 40.828125 37.75 38.8125 
Q 44.34375 36.671875 47.78125 31.875 
Q 51.21875 27.09375 51.21875 20.453125 
Q 51.21875 11.28125 44.71875 5.03125 
Q 38.234375 -1.21875 27.640625 -1.21875 
Q 17.046875 -1.21875 10.546875 5.046875 
Q 4.046875 11.328125 4.046875 20.703125 
Q 4.046875 27.6875 7.59375 32.390625 
Q 11.140625 37.109375 17.671875 38.8125 
z
M 15.921875 53.71875 
Q 15.921875 48.640625 19.1875 45.40625 
Q 22.46875 42.1875 27.6875 42.1875 
Q 32.765625 42.1875 36.015625 45.375 
Q 39.265625 48.578125 39.265625 53.21875 
Q 39.265625 58.0625 35.90625 61.359375 
Q 32.5625 64.65625 27.59375 64.65625 
Q 22.5625 64.65625 19.234375 61.421875 
Q 15.921875 58.203125 15.921875 53.71875 
z
M 13.09375 20.65625 
Q 13.09375 16.890625 14.875 13.375 
Q 16.65625 9.859375 20.171875 7.921875 
Q 23.6875 6 27.734375 6 
Q 34.03125 6 38.125 10.046875 
Q 42.234375 14.109375 42.234375 20.359375 
Q 42.234375 26.703125 38.015625 30.859375 
Q 33.796875 35.015625 27.4375 35.015625 
Q 21.234375 35.015625 17.15625 30.90625 
Q 13.09375 26.8125 13.09375 20.65625 
z
" id="ArialMT-38"/>
      </defs>
      <g transform="translate(25.90625 129.458947)scale(0.1 -0.1)">
       <use xlink:href="#ArialMT-38"/>
      </g>
     </g>
    </g>
    <g id="ytick_6">
     <g id="line2d_14">
      <g>
       <use style="stroke:#000000;stroke-width:0.8;" x="38.467188" xlink:href="#m7ba3e47879" y="100.315051"/>
      </g>
     </g>
     <g id="text_15">
      <!-- 10 -->
      <g transform="translate(20.345313 103.893958)scale(0.1 -0.1)">
       <use xlink:href="#ArialMT-31"/>
       <use x="55.615234" xlink:href="#ArialMT-30"/>
      </g>
     </g>
    </g>
    <g id="ytick_7">
     <g id="line2d_15">
      <g>
       <use style="stroke:#000000;stroke-width:0.8;" x="38.467188" xlink:href="#m7ba3e47879" y="74.750062"/>
      </g>
     </g>
     <g id="text_16">
      <!-- 12 -->
      <g transform="translate(20.345313 78.328968)scale(0.1 -0.1)">
       <use xlink:href="#ArialMT-31"/>
       <use x="55.615234" xlink:href="#ArialMT-32"/>
      </g>
     </g>
    </g>
    <g id="ytick_8">
     <g id="line2d_16">
      <g>
       <use style="stroke:#000000;stroke-width:0.8;" x="38.467188" xlink:href="#m7ba3e47879" y="49.185072"/>
      </g>
     </g>
     <g id="text_17">
      <!-- 14 -->
      <g transform="translate(20.345313 52.763978)scale(0.1 -0.1)">
       <use xlink:href="#ArialMT-31"/>
       <use x="55.615234" xlink:href="#ArialMT-34"/>
      </g>
     </g>
    </g>
    <g id="ytick_9">
     <g id="line2d_17">
      <g>
       <use style="stroke:#000000;stroke-width:0.8;" x="38.467188" xlink:href="#m7ba3e47879" y="23.620082"/>
      </g>
     </g>
     <g id="text_18">
      <!-- 16 -->
      <g transform="translate(20.345313 27.198989)scale(0.1 -0.1)">
       <use xlink:href="#ArialMT-31"/>
       <use x="55.615234" xlink:href="#ArialMT-36"/>
      </g>
     </g>
    </g>
    <g id="text_19">
     <!-- energy -->
     <defs>
      <path d="M 4.984375 -4.296875 
L 13.53125 -5.5625 
Q 14.0625 -9.515625 16.5 -11.328125 
Q 19.78125 -13.765625 25.4375 -13.765625 
Q 31.546875 -13.765625 34.859375 -11.328125 
Q 38.1875 -8.890625 39.359375 -4.5 
Q 40.046875 -1.8125 39.984375 6.78125 
Q 34.234375 0 25.640625 0 
Q 14.9375 0 9.078125 7.71875 
Q 3.21875 15.4375 3.21875 26.21875 
Q 3.21875 33.640625 5.90625 39.90625 
Q 8.59375 46.1875 13.6875 49.609375 
Q 18.796875 53.03125 25.6875 53.03125 
Q 34.859375 53.03125 40.828125 45.609375 
L 40.828125 51.859375 
L 48.921875 51.859375 
L 48.921875 7.03125 
Q 48.921875 -5.078125 46.453125 -10.125 
Q 44 -15.1875 38.640625 -18.109375 
Q 33.296875 -21.046875 25.484375 -21.046875 
Q 16.21875 -21.046875 10.5 -16.875 
Q 4.78125 -12.703125 4.984375 -4.296875 
z
M 12.25 26.859375 
Q 12.25 16.65625 16.296875 11.96875 
Q 20.359375 7.28125 26.46875 7.28125 
Q 32.515625 7.28125 36.609375 11.9375 
Q 40.71875 16.609375 40.71875 26.5625 
Q 40.71875 36.078125 36.5 40.90625 
Q 32.28125 45.75 26.3125 45.75 
Q 20.453125 45.75 16.34375 40.984375 
Q 12.25 36.234375 12.25 26.859375 
z
" id="ArialMT-67"/>
      <path d="M 6.203125 -19.96875 
L 5.21875 -11.71875 
Q 8.109375 -12.5 10.25 -12.5 
Q 13.1875 -12.5 14.9375 -11.515625 
Q 16.703125 -10.546875 17.828125 -8.796875 
Q 18.65625 -7.46875 20.515625 -2.25 
Q 20.75 -1.515625 21.296875 -0.09375 
L 1.609375 51.859375 
L 11.078125 51.859375 
L 21.875 21.828125 
Q 23.96875 16.109375 25.640625 9.8125 
Q 27.15625 15.875 29.25 21.625 
L 40.328125 51.859375 
L 49.125 51.859375 
L 29.390625 -0.875 
Q 26.21875 -9.421875 24.46875 -12.640625 
Q 22.125 -17 19.09375 -19.015625 
Q 16.0625 -21.046875 11.859375 -21.046875 
Q 9.328125 -21.046875 6.203125 -19.96875 
z
" id="ArialMT-79"/>
     </defs>
     <g transform="translate(14.240625 134.706719)rotate(-90)scale(0.1 -0.1)">
      <use xlink:href="#ArialMT-65"/>
      <use x="55.615234" xlink:href="#ArialMT-6e"/>
      <use x="111.230469" xlink:href="#ArialMT-65"/>
      <use x="166.845703" xlink:href="#ArialMT-72"/>
      <use x="200.146484" xlink:href="#ArialMT-67"/>
      <use x="255.761719" xlink:href="#ArialMT-79"/>
     </g>
    </g>
   </g>
   <g id="line2d_18">
    <path clip-path="url(#p1f5ba0a278)" d="M 38.467188 228.14 
L 41.849006 228.14 
L 45.230824 228.14 
L 48.612642 228.14 
L 51.99446 228.14 
L 55.376278 228.14 
L 58.758097 228.14 
L 62.139915 228.14 
L 65.521733 228.14 
L 68.903551 228.14 
L 72.285369 228.14 
L 75.667188 228.14 
L 79.049006 228.14 
L 82.430824 228.14 
L 85.812642 228.14 
L 89.19446 228.14 
L 92.576278 228.14 
L 95.958097 228.14 
L 99.339915 228.14 
L 102.721733 228.14 
L 106.103551 228.14 
L 109.485369 228.14 
L 112.867188 228.14 
L 116.249006 228.14 
L 119.630824 228.14 
L 123.012642 228.14 
L 126.39446 228.14 
L 129.776278 228.14 
L 133.158097 228.14 
L 136.539915 228.14 
L 139.921733 228.14 
L 143.303551 228.14 
L 146.685369 228.14 
L 150.067188 228.14 
L 153.449006 228.14 
L 156.830824 228.14 
L 160.212642 228.14 
L 163.59446 228.14 
L 166.976278 228.14 
L 170.358097 228.14 
L 173.739915 228.14 
L 177.121733 228.14 
L 180.503551 228.14 
L 183.885369 228.14 
L 187.267188 228.14 
L 190.649006 228.14 
L 194.030824 228.14 
L 197.412642 228.14 
L 200.79446 228.14 
L 204.176278 228.14 
L 207.558097 228.14 
L 210.939915 228.14 
L 214.321733 228.14 
L 217.703551 228.14 
L 221.085369 228.14 
L 224.467188 228.14 
L 227.849006 228.14 
L 231.230824 228.14 
L 234.612642 228.14 
L 237.99446 228.14 
L 241.376278 228.14 
L 244.758097 228.14 
L 248.139915 228.14 
L 251.521733 228.14 
L 254.903551 228.14 
L 258.285369 228.14 
L 261.667187 228.14 
L 265.049006 228.14 
L 268.430824 228.14 
L 271.812642 228.14 
L 275.19446 228.14 
L 278.576278 228.14 
L 281.958097 228.14 
L 285.339915 228.14 
L 288.721733 228.14 
L 292.103551 228.14 
L 295.485369 228.14 
L 298.867188 228.14 
L 302.249006 228.14 
L 305.630824 228.14 
L 309.012642 228.14 
L 312.39446 228.14 
L 315.776278 228.14 
L 319.158097 228.14 
L 322.539915 228.14 
L 325.921733 228.14 
L 329.303551 228.14 
L 332.685369 228.14 
L 336.067188 228.14 
L 339.449006 228.14 
L 342.830824 228.14 
L 346.212642 228.14 
L 349.59446 228.14 
L 352.976278 228.14 
L 356.358097 228.14 
L 359.739915 228.14 
L 363.121733 228.14 
L 366.503551 228.14 
L 369.885369 228.14 
L 373.267188 228.14 
" style="fill:none;stroke:#1f77b4;stroke-linecap:square;stroke-width:1.5;"/>
   </g>
   <g id="line2d_19">
    <path clip-path="url(#p1f5ba0a278)" d="M 38.467188 167.533748 
L 41.849006 167.533742 
L 45.230824 167.533736 
L 48.612642 167.533731 
L 51.99446 167.533727 
L 55.376278 167.533723 
L 58.758097 167.533719 
L 62.139915 167.533716 
L 65.521733 167.533713 
L 68.903551 167.533711 
L 72.285369 167.533709 
L 75.667188 167.533707 
L 79.049006 167.533706 
L 82.430824 167.533706 
L 85.812642 167.533705 
L 89.19446 167.533706 
L 92.576278 167.533706 
L 95.958097 167.533707 
L 99.339915 167.533708 
L 102.721733 167.53371 
L 106.103551 167.533712 
L 109.485369 167.533715 
L 112.867188 167.533718 
L 116.249006 167.533721 
L 119.630824 167.533725 
L 123.012642 167.53373 
L 126.39446 167.533735 
L 129.776278 167.53374 
L 133.158097 167.533746 
L 136.539915 167.533753 
L 139.921733 167.53376 
L 143.303551 167.533768 
L 146.685369 167.533776 
L 150.067188 167.533786 
L 153.449006 167.533796 
L 156.830824 167.533806 
L 160.212642 167.533818 
L 163.59446 167.533831 
L 166.976278 167.533845 
L 170.358097 167.53386 
L 173.739915 167.533876 
L 177.121733 167.533894 
L 180.503551 167.533913 
L 183.885369 167.533934 
L 187.267188 167.533957 
L 190.649006 167.533982 
L 194.030824 167.53401 
L 197.412642 167.534041 
L 200.79446 167.534074 
L 204.176278 167.534112 
L 207.558097 167.534154 
L 210.939915 167.534202 
L 214.321733 167.534256 
L 217.703551 167.534317 
L 221.085369 167.534388 
L 224.467188 167.53447 
L 227.849006 167.534567 
L 231.230824 167.534684 
L 234.612642 167.534826 
L 237.99446 167.535002 
L 241.376278 167.535229 
L 244.758097 167.535529 
L 248.139915 167.535949 
L 251.521733 167.536576 
L 254.903551 167.537616 
L 258.285369 167.539685 
L 261.667187 167.545805 
L 265.049006 167.673424 
L 268.430824 169.234296 
L 271.812642 170.993429 
L 275.19446 172.829599 
L 278.576278 174.745218 
L 281.958097 176.746439 
L 285.339915 178.841406 
L 288.721733 181.04039 
L 292.103551 183.356363 
L 295.485369 185.805935 
L 298.867188 188.410852 
L 302.249006 191.200454 
L 305.630824 194.215977 
L 309.012642 197.518822 
L 312.39446 201.208655 
L 315.776278 205.471227 
L 319.158097 210.736199 
L 322.539915 218.07275 
L 325.921733 223.821021 
L 329.303551 215.686878 
L 332.685369 209.083485 
L 336.067188 204.177522 
L 339.449006 200.106573 
L 342.830824 196.541036 
L 346.212642 193.328269 
L 349.59446 190.382459 
L 352.976278 187.649204 
L 356.358097 185.091273 
L 359.739915 182.681831 
L 363.121733 180.400797 
L 366.503551 178.232724 
L 369.885369 176.165489 
L 373.267188 174.189472 
" style="fill:none;stroke:#ff7f0e;stroke-linecap:square;stroke-width:1.5;"/>
   </g>
   <g id="line2d_20">
    <path clip-path="url(#p1f5ba0a278)" d="M 38.467188 155.569232 
L 41.849006 155.569231 
L 45.230824 155.56923 
L 48.612642 155.569229 
L 51.99446 155.569229 
L 55.376278 155.569228 
L 58.758097 155.569228 
L 62.139915 155.569227 
L 65.521733 155.569227 
L 68.903551 155.569227 
L 72.285369 155.569226 
L 75.667188 155.569226 
L 79.049006 155.569226 
L 82.430824 155.569226 
L 85.812642 155.569226 
L 89.19446 155.569226 
L 92.576278 155.569226 
L 95.958097 155.569226 
L 99.339915 155.569226 
L 102.721733 155.569227 
L 106.103551 155.569227 
L 109.485369 155.569227 
L 112.867188 155.569228 
L 116.249006 155.569228 
L 119.630824 155.569229 
L 123.012642 155.569229 
L 126.39446 155.56923 
L 129.776278 155.569231 
L 133.158097 155.569231 
L 136.539915 155.569232 
L 139.921733 155.569233 
L 143.303551 155.569234 
L 146.685369 155.569235 
L 150.067188 155.569236 
L 153.449006 155.569237 
L 156.830824 155.569239 
L 160.212642 155.56924 
L 163.59446 155.569241 
L 166.976278 155.569243 
L 170.358097 155.569245 
L 173.739915 155.569246 
L 177.121733 155.569248 
L 180.503551 155.56925 
L 183.885369 155.569252 
L 187.267188 155.569254 
L 190.649006 155.569257 
L 194.030824 155.569259 
L 197.412642 155.569262 
L 200.79446 155.569264 
L 204.176278 155.569267 
L 207.558097 155.56927 
L 210.939915 155.569274 
L 214.321733 155.569277 
L 217.703551 155.569281 
L 221.085369 155.569285 
L 224.467188 155.569289 
L 227.849006 155.569294 
L 231.230824 155.569299 
L 234.612642 155.569305 
L 237.99446 156.25859 
L 241.376278 157.417099 
L 244.758097 158.662401 
L 248.139915 159.981053 
L 251.521733 161.365483 
L 254.903551 162.811722 
L 258.285369 164.317779 
L 261.667187 165.880884 
L 265.049006 167.385058 
L 268.430824 167.521039 
L 271.812642 167.527256 
L 275.19446 167.529346 
L 278.576278 167.530398 
L 281.958097 167.531034 
L 285.339915 167.531463 
L 288.721733 167.531775 
L 292.103551 167.532014 
L 295.485369 167.532206 
L 298.867188 167.532366 
L 302.249006 167.532505 
L 305.630824 167.532629 
L 309.012642 169.972 
L 312.39446 177.414744 
L 315.776278 185.991504 
L 319.158097 196.175352 
L 322.539915 206.727593 
L 325.921733 211.631898 
L 329.303551 203.915109 
L 332.685369 193.102207 
L 336.067188 183.394362 
L 339.449006 175.192532 
L 342.830824 167.99879 
L 346.212642 167.532595 
L 349.59446 167.532467 
L 352.976278 167.532323 
L 356.358097 167.532155 
L 359.739915 167.531951 
L 363.121733 167.531695 
L 366.503551 167.531355 
L 369.885369 167.530879 
L 373.267188 167.530154 
" style="fill:none;stroke:#2ca02c;stroke-linecap:square;stroke-width:1.5;"/>
   </g>
   <g id="line2d_21">
    <path clip-path="url(#p1f5ba0a278)" d="M 38.467188 151.600503 
L 41.849006 151.597279 
L 45.230824 151.594387 
L 48.612642 151.5918 
L 51.99446 151.589497 
L 55.376278 151.587459 
L 58.758097 151.585672 
L 62.139915 151.58412 
L 65.521733 151.582793 
L 68.903551 151.581682 
L 72.285369 151.580778 
L 75.667188 151.580075 
L 79.049006 151.579569 
L 82.430824 151.579255 
L 85.812642 151.579133 
L 89.19446 151.579201 
L 92.576278 151.579459 
L 95.958097 151.57991 
L 99.339915 151.580557 
L 102.721733 151.581403 
L 106.103551 151.582454 
L 109.485369 151.583719 
L 112.867188 151.585205 
L 116.249006 151.586924 
L 119.630824 151.588888 
L 123.012642 151.591114 
L 126.39446 151.593617 
L 129.776278 151.59642 
L 133.158097 151.599547 
L 136.539915 151.603025 
L 139.921733 151.606887 
L 143.303551 151.611174 
L 146.685369 151.615929 
L 150.067188 151.621206 
L 153.449006 151.62707 
L 156.830824 151.633595 
L 160.212642 151.640873 
L 163.59446 151.649013 
L 166.976278 151.65815 
L 170.358097 151.668447 
L 173.739915 151.680108 
L 177.121733 151.69339 
L 180.503551 151.708619 
L 183.885369 151.726215 
L 187.267188 151.746729 
L 190.649006 151.770895 
L 194.030824 151.799714 
L 197.412642 151.834575 
L 200.79446 151.877464 
L 204.176278 151.931293 
L 207.558097 152.000466 
L 210.939915 152.091858 
L 214.321733 152.216512 
L 217.703551 152.392428 
L 221.085369 152.648348 
L 224.467188 153.025551 
L 227.849006 153.568696 
L 231.230824 154.301073 
L 234.612642 155.209136 
L 237.99446 155.569308 
L 241.376278 155.569315 
L 244.758097 155.569321 
L 248.139915 155.569328 
L 251.521733 155.569336 
L 254.903551 155.569344 
L 258.285369 155.569353 
L 261.667187 155.569363 
L 265.049006 155.569374 
L 268.430824 155.569386 
L 271.812642 155.5694 
L 275.19446 155.569415 
L 278.576278 155.569432 
L 281.958097 155.569452 
L 285.339915 155.569475 
L 288.721733 155.569503 
L 292.103551 155.569535 
L 295.485369 155.569575 
L 298.867188 155.569625 
L 302.249006 157.222843 
L 305.630824 163.306526 
L 309.012642 167.532747 
L 312.39446 167.532864 
L 315.776278 167.53299 
L 319.158097 167.533149 
L 322.539915 167.533417 
L 325.921733 167.533734 
L 329.303551 167.53332 
L 332.685369 167.533098 
L 336.067188 167.532952 
L 339.449006 167.53283 
L 342.830824 167.532714 
L 346.212642 161.515251 
L 349.59446 155.573408 
L 352.976278 155.569609 
L 356.358097 155.569563 
L 359.739915 155.569525 
L 363.121733 155.569494 
L 366.503551 155.569468 
L 369.885369 155.569446 
L 373.267188 155.569427 
" style="fill:none;stroke:#d62728;stroke-linecap:square;stroke-width:1.5;"/>
   </g>
   <g id="line2d_22">
    <path clip-path="url(#p1f5ba0a278)" d="M 38.467188 130.869684 
L 41.849006 130.525605 
L 45.230824 130.207029 
L 48.612642 129.91389 
L 51.99446 129.64613 
L 55.376278 129.403693 
L 58.758097 129.186532 
L 62.139915 128.994601 
L 65.521733 128.827862 
L 68.903551 128.686282 
L 72.285369 128.569832 
L 75.667188 128.478489 
L 79.049006 128.412235 
L 82.430824 128.371055 
L 85.812642 128.354943 
L 89.19446 128.363894 
L 92.576278 128.397911 
L 95.958097 128.457 
L 99.339915 128.541173 
L 102.721733 128.650448 
L 106.103551 128.784845 
L 109.485369 128.944392 
L 112.867188 129.129121 
L 116.249006 129.33907 
L 119.630824 129.57428 
L 123.012642 129.8348 
L 126.39446 130.120682 
L 129.776278 130.431984 
L 133.158097 130.76877 
L 136.539915 131.131106 
L 139.921733 131.519066 
L 143.303551 131.932727 
L 146.685369 132.372169 
L 150.067188 132.837477 
L 153.449006 133.328736 
L 156.830824 133.846032 
L 160.212642 134.389452 
L 163.59446 134.959076 
L 166.976278 135.554976 
L 170.358097 136.177213 
L 173.739915 136.825824 
L 177.121733 137.500814 
L 180.503551 138.202142 
L 183.885369 138.929693 
L 187.267188 139.68325 
L 190.649006 140.462437 
L 194.030824 141.266647 
L 197.412642 142.094911 
L 200.79446 142.945706 
L 204.176278 143.816621 
L 207.558097 144.703794 
L 210.939915 145.600944 
L 214.321733 146.497677 
L 217.703551 147.376699 
L 221.085369 148.210045 
L 224.467188 148.957284 
L 227.849006 149.574691 
L 231.230824 150.040004 
L 234.612642 150.3679 
L 237.99446 150.593933 
L 241.376278 150.751818 
L 244.758097 150.865359 
L 248.139915 150.9497 
L 251.521733 151.014285 
L 254.903551 151.065084 
L 258.285369 151.105977 
L 261.667187 151.139558 
L 265.049006 151.167614 
L 268.430824 151.19141 
L 271.812642 151.211865 
L 275.19446 151.229658 
L 278.576278 151.245305 
L 281.958097 151.259205 
L 285.339915 151.271672 
L 288.721733 151.282957 
L 292.103551 151.293266 
L 295.485369 151.302773 
L 298.867188 151.599046 
L 302.249006 155.569689 
L 305.630824 155.569778 
L 309.012642 155.569908 
L 312.39446 155.570121 
L 315.776278 155.57055 
L 319.158097 155.572007 
L 322.539915 157.474888 
L 325.921733 163.216696 
L 329.303551 155.600096 
L 332.685369 155.571316 
L 336.067188 155.570387 
L 339.449006 155.570047 
L 342.830824 155.569865 
L 346.212642 155.56975 
L 349.59446 155.569574 
L 352.976278 151.309158 
L 356.358097 151.30013 
L 359.739915 151.290409 
L 363.121733 151.27984 
L 366.503551 151.268241 
L 369.885369 151.255393 
L 373.267188 151.241028 
" style="fill:none;stroke:#9467bd;stroke-linecap:square;stroke-width:1.5;"/>
   </g>
   <g id="line2d_23">
    <path clip-path="url(#p1f5ba0a278)" d="M 38.467188 91.091953 
L 41.849006 91.088724 
L 45.230824 91.085825 
L 48.612642 91.083232 
L 51.99446 91.080924 
L 55.376278 91.078882 
L 58.758097 91.07709 
L 62.139915 91.075534 
L 65.521733 91.074203 
L 68.903551 91.073089 
L 72.285369 91.072182 
L 75.667188 91.071477 
L 79.049006 91.070969 
L 82.430824 91.070655 
L 85.812642 91.070533 
L 89.19446 91.070601 
L 92.576278 91.07086 
L 95.958097 91.071312 
L 99.339915 91.07196 
L 102.721733 91.072809 
L 106.103551 91.073863 
L 109.485369 91.075131 
L 112.867188 91.076621 
L 116.249006 91.078345 
L 119.630824 91.080314 
L 123.012642 91.082545 
L 126.39446 91.085054 
L 129.776278 91.087863 
L 133.158097 91.090995 
L 136.539915 91.094479 
L 139.921733 91.098348 
L 143.303551 91.10264 
L 146.685369 91.1074 
L 150.067188 91.112681 
L 153.449006 91.118548 
L 156.830824 91.125074 
L 160.212642 91.13235 
L 163.59446 91.140485 
L 166.976278 91.149612 
L 170.358097 91.159892 
L 173.739915 91.171528 
L 177.121733 91.184774 
L 180.503551 91.199949 
L 183.885369 91.21747 
L 187.267188 91.237877 
L 190.649006 91.261893 
L 194.030824 91.290497 
L 197.412642 91.325051 
L 200.79446 91.367491 
L 204.176278 91.420653 
L 207.558097 91.488812 
L 210.939915 91.578624 
L 214.321733 91.700748 
L 217.703551 91.872543 
L 221.085369 92.121805 
L 224.467188 92.488947 
L 227.849006 93.01911 
L 231.230824 93.738275 
L 234.612642 94.635734 
L 237.99446 95.677996 
L 241.376278 96.832168 
L 244.758097 98.07529 
L 248.139915 99.39363 
L 251.521733 100.7801 
L 254.903551 102.233754 
L 258.285369 103.783912 
L 261.667187 106.335392 
L 265.049006 109.599435 
L 268.430824 113.008806 
L 271.812642 116.556972 
L 275.19446 120.251496 
L 278.576278 124.103478 
L 281.958097 128.1269 
L 285.339915 132.339048 
L 288.721733 136.761371 
L 292.103551 141.420804 
L 295.485369 146.351739 
L 298.867188 151.311631 
L 302.249006 151.319975 
L 305.630824 151.327941 
L 309.012642 151.335673 
L 312.39446 151.343353 
L 315.776278 151.351263 
L 319.158097 151.359993 
L 322.539915 155.560575 
L 325.921733 155.566929 
L 329.303551 155.049479 
L 332.685369 151.357354 
L 336.067188 151.348955 
L 339.449006 151.341151 
L 342.830824 151.333478 
L 346.212642 151.325695 
L 349.59446 151.317635 
L 352.976278 150.064378 
L 356.358097 144.912815 
L 359.739915 140.063502 
L 363.121733 135.474953 
L 366.503551 131.115158 
L 369.885369 126.958918 
L 373.267188 122.986086 
" style="fill:none;stroke:#8c564b;stroke-linecap:square;stroke-width:1.5;"/>
   </g>
   <g id="line2d_24">
    <path clip-path="url(#p1f5ba0a278)" d="M 38.467188 79.116011 
L 41.849006 79.112793 
L 45.230824 79.109905 
L 48.612642 79.107322 
L 51.99446 79.105023 
L 55.376278 79.102988 
L 58.758097 79.101203 
L 62.139915 79.099654 
L 65.521733 79.098328 
L 68.903551 79.097218 
L 72.285369 79.096315 
L 75.667188 79.095613 
L 79.049006 79.095107 
L 82.430824 79.094794 
L 85.812642 79.094672 
L 89.19446 79.09474 
L 92.576278 79.094998 
L 95.958097 79.095448 
L 99.339915 79.096094 
L 102.721733 79.096939 
L 106.103551 79.097989 
L 109.485369 79.099252 
L 112.867188 79.100737 
L 116.249006 79.102454 
L 119.630824 79.104415 
L 123.012642 79.106637 
L 126.39446 79.109137 
L 129.776278 79.111935 
L 133.158097 79.115056 
L 136.539915 79.118527 
L 139.921733 79.122382 
L 143.303551 79.126658 
L 146.685369 79.131401 
L 150.067188 79.136665 
L 153.449006 79.142511 
L 156.830824 79.149015 
L 160.212642 79.156268 
L 163.59446 79.164377 
L 166.976278 79.173475 
L 170.358097 79.183724 
L 173.739915 79.195326 
L 177.121733 79.208535 
L 180.503551 79.22367 
L 183.885369 79.241147 
L 187.267188 79.261506 
L 190.649006 79.857882 
L 194.030824 80.662423 
L 197.412642 81.491126 
L 200.79446 82.342515 
L 204.176278 83.214259 
L 207.558097 84.102629 
L 210.939915 85.001568 
L 214.321733 85.901069 
L 217.703551 86.784488 
L 221.085369 87.624813 
L 224.467188 88.382494 
L 227.849006 89.013339 
L 231.230824 89.492423 
L 234.612642 89.831628 
L 237.99446 90.065767 
L 241.376278 90.229321 
L 244.758097 91.59871 
L 248.139915 94.310498 
L 251.521733 97.1328 
L 254.903551 100.061968 
L 258.285369 103.068826 
L 261.667187 105.252101 
L 265.049006 106.906852 
L 268.430824 108.609113 
L 271.812642 110.376732 
L 275.19446 112.216183 
L 278.576278 114.133557 
L 281.958097 116.135863 
L 285.339915 118.231558 
L 288.721733 120.43106 
L 292.103551 122.747415 
L 295.485369 125.197277 
L 298.867188 127.802417 
L 302.249006 130.592188 
L 305.630824 133.607834 
L 309.012642 136.910748 
L 312.39446 140.600569 
L 315.776278 144.862937 
L 319.158097 150.126725 
L 322.539915 151.370916 
L 325.921733 151.379675 
L 329.303551 151.367478 
L 332.685369 148.474619 
L 336.067188 143.569326 
L 339.449006 139.498502 
L 342.830824 135.932948 
L 346.212642 132.720095 
L 349.59446 129.77415 
L 352.976278 127.040711 
L 356.358097 124.48254 
L 359.739915 122.072785 
L 363.121733 119.791335 
L 366.503551 117.622694 
L 369.885369 115.554648 
L 373.267188 113.577399 
" style="fill:none;stroke:#e377c2;stroke-linecap:square;stroke-width:1.5;"/>
   </g>
   <g id="line2d_25">
    <path clip-path="url(#p1f5ba0a278)" d="M 38.467188 75.061346 
L 41.849006 75.054889 
L 45.230824 75.049095 
L 48.612642 75.043914 
L 51.99446 75.039303 
L 55.376278 75.035223 
L 58.758097 75.031643 
L 62.139915 75.028537 
L 65.521733 75.02588 
L 68.903551 75.023655 
L 72.285369 75.021845 
L 75.667188 75.020438 
L 79.049006 75.019424 
L 82.430824 75.018797 
L 85.812642 75.018552 
L 89.19446 75.018688 
L 92.576278 75.019206 
L 95.958097 75.020108 
L 99.339915 75.021402 
L 102.721733 75.023096 
L 106.103551 75.025201 
L 109.485369 75.027733 
L 112.867188 75.030708 
L 116.249006 75.03415 
L 119.630824 75.038084 
L 123.012642 75.04254 
L 126.39446 75.047554 
L 129.776278 75.053168 
L 133.158097 75.05943 
L 136.539915 75.066397 
L 139.921733 75.074136 
L 143.303551 75.082725 
L 146.685369 75.092254 
L 150.067188 75.102833 
L 153.449006 75.114588 
L 156.830824 75.127674 
L 160.212642 75.142273 
L 163.59446 75.158609 
L 166.976278 75.176952 
L 170.358097 75.5717 
L 173.739915 76.220402 
L 177.121733 76.895503 
L 180.503551 77.596963 
L 183.885369 78.324678 
L 187.267188 79.078437 
L 190.649006 79.28547 
L 194.030824 79.314018 
L 197.412642 79.348513 
L 200.79446 79.390891 
L 204.176278 79.443993 
L 207.558097 79.512101 
L 210.939915 79.601886 
L 214.321733 79.724037 
L 217.703551 79.895974 
L 221.085369 80.145597 
L 224.467188 80.51345 
L 227.849006 81.044702 
L 231.230824 82.038321 
L 234.612642 84.195416 
L 237.99446 86.527789 
L 241.376278 89.001142 
L 244.758097 90.346285 
L 248.139915 90.433626 
L 251.521733 90.500587 
L 254.903551 90.553688 
L 258.285369 91.757463 
L 261.667187 93.326113 
L 265.049006 94.957462 
L 268.430824 96.653965 
L 271.812642 98.419036 
L 275.19446 100.257073 
L 278.576278 102.173564 
L 281.958097 104.175277 
L 285.339915 106.27056 
L 288.721733 108.46977 
L 292.103551 110.785922 
L 295.485369 113.235655 
L 298.867188 115.840734 
L 302.249006 118.630519 
L 305.630824 121.64628 
L 309.012642 124.949473 
L 312.39446 128.639918 
L 315.776278 132.903955 
L 319.158097 138.176617 
L 322.539915 146.166887 
L 325.921733 151.344751 
L 329.303551 143.412254 
L 332.685369 136.519747 
L 336.067188 131.609654 
L 339.449006 127.537616 
L 342.830824 123.97157 
L 346.212642 120.758496 
L 349.59446 117.812469 
L 352.976278 115.079038 
L 356.358097 112.520948 
L 359.739915 110.111342 
L 363.121733 107.830118 
L 366.503551 105.661799 
L 369.885369 103.59421 
L 373.267188 101.617621 
" style="fill:none;stroke:#7f7f7f;stroke-linecap:square;stroke-width:1.5;"/>
   </g>
   <g id="line2d_26">
    <path clip-path="url(#p1f5ba0a278)" d="M 38.467188 70.263711 
L 41.849006 69.919614 
L 45.230824 69.601021 
L 48.612642 69.307867 
L 51.99446 69.040094 
L 55.376278 68.797646 
L 58.758097 68.580474 
L 62.139915 68.388535 
L 65.521733 68.221789 
L 68.903551 68.080203 
L 72.285369 67.963749 
L 75.667188 67.872402 
L 79.049006 67.806144 
L 82.430824 67.764963 
L 85.812642 67.74885 
L 89.19446 67.757802 
L 92.576278 67.79182 
L 95.958097 67.850911 
L 99.339915 67.935088 
L 102.721733 68.044367 
L 106.103551 68.17877 
L 109.485369 68.338324 
L 112.867188 68.523062 
L 116.249006 68.73302 
L 119.630824 68.968241 
L 123.012642 69.228773 
L 126.39446 69.51467 
L 129.776278 69.825988 
L 133.158097 70.162791 
L 136.539915 70.525148 
L 139.921733 70.913131 
L 143.303551 71.326818 
L 146.685369 71.76629 
L 150.067188 72.231631 
L 153.449006 72.722927 
L 156.830824 73.240267 
L 160.212642 73.783736 
L 163.59446 74.353417 
L 166.976278 74.949383 
L 170.358097 75.197633 
L 173.739915 75.221073 
L 177.121733 75.247794 
L 180.503551 75.278464 
L 183.885369 75.313951 
L 187.267188 75.355398 
L 190.649006 75.404343 
L 194.030824 75.462907 
L 197.412642 75.534085 
L 200.79446 75.622254 
L 204.176278 75.734052 
L 207.558097 75.880034 
L 210.939915 76.077952 
L 214.321733 76.359713 
L 217.703551 76.786183 
L 221.085369 77.470971 
L 224.467188 78.566393 
L 227.849006 80.123538 
L 231.230824 81.765085 
L 234.612642 82.663534 
L 237.99446 83.706337 
L 241.376278 84.860552 
L 244.758097 86.103161 
L 248.139915 87.420202 
L 251.521733 88.803839 
L 254.903551 90.250095 
L 258.285369 90.597575 
L 261.667187 90.637895 
L 265.049006 90.787555 
L 268.430824 92.354865 
L 271.812642 94.124454 
L 275.19446 95.970291 
L 278.576278 97.894866 
L 281.958097 99.90442 
L 285.339915 102.00718 
L 288.721733 104.213494 
L 292.103551 106.536405 
L 295.485369 108.992594 
L 298.867188 111.603876 
L 302.249006 114.399662 
L 305.630824 117.421267 
L 309.012642 120.730178 
L 312.39446 124.42619 
L 315.776278 128.69525 
L 319.158097 135.556271 
L 322.539915 145.454572 
L 325.921733 150.928284 
L 329.303551 143.010926 
L 332.685369 132.487327 
L 336.067188 127.399649 
L 339.449006 123.322321 
L 342.830824 119.750654 
L 346.212642 116.531827 
L 349.59446 113.579915 
L 352.976278 110.840431 
L 356.358097 108.27607 
L 359.739915 105.859927 
L 363.121733 103.57185 
L 366.503551 101.396322 
L 369.885369 99.321148 
L 373.267188 97.336628 
" style="fill:none;stroke:#bcbd22;stroke-linecap:square;stroke-width:1.5;"/>
   </g>
   <g id="line2d_27">
    <path clip-path="url(#p1f5ba0a278)" d="M 38.467188 58.299207 
L 41.849006 57.955115 
L 45.230824 57.636526 
L 48.612642 57.343377 
L 51.99446 57.075607 
L 55.376278 56.833162 
L 58.758097 56.615994 
L 62.139915 56.424057 
L 65.521733 56.257313 
L 68.903551 56.115729 
L 72.285369 55.999276 
L 75.667188 55.90793 
L 79.049006 55.841674 
L 82.430824 55.800493 
L 85.812642 55.78438 
L 89.19446 55.793332 
L 92.576278 55.827349 
L 95.958097 55.88644 
L 99.339915 55.970616 
L 102.721733 56.079894 
L 106.103551 56.214295 
L 109.485369 56.373847 
L 112.867188 56.558582 
L 116.249006 56.768537 
L 119.630824 57.003755 
L 123.012642 57.264284 
L 126.39446 57.550176 
L 129.776278 57.86149 
L 133.158097 58.198288 
L 136.539915 58.56064 
L 139.921733 58.948617 
L 143.303551 59.362298 
L 146.685369 59.801763 
L 150.067188 60.267096 
L 153.449006 60.758385 
L 156.830824 61.275716 
L 160.212642 61.819176 
L 163.59446 62.388846 
L 166.976278 62.984802 
L 170.358097 63.607105 
L 173.739915 64.255794 
L 177.121733 64.93088 
L 180.503551 65.632324 
L 183.885369 66.36002 
L 187.267188 67.113759 
L 190.649006 67.893179 
L 194.030824 68.697692 
L 197.412642 69.52636 
L 200.79446 70.377706 
L 204.176278 71.249391 
L 207.558097 72.137677 
L 210.939915 73.036489 
L 214.321733 73.935786 
L 217.703551 74.818858 
L 221.085369 75.65858 
L 224.467188 76.415261 
L 227.849006 77.044669 
L 231.230824 77.522098 
L 234.612642 78.125506 
L 237.99446 79.222423 
L 241.376278 80.410067 
L 244.758097 81.677778 
L 248.139915 83.015874 
L 251.521733 84.417913 
L 254.903551 85.880276 
L 258.285369 87.401128 
L 261.667187 88.977878 
L 265.049006 90.501046 
L 268.430824 90.666232 
L 271.812642 90.693297 
L 275.19446 90.713492 
L 278.576278 90.730453 
L 281.958097 90.745214 
L 285.339915 90.758304 
L 288.721733 90.770071 
L 292.103551 90.78077 
L 295.485369 90.790604 
L 298.867188 90.990811 
L 302.249006 96.614439 
L 305.630824 102.697875 
L 309.012642 109.362966 
L 312.39446 116.805039 
L 315.776278 125.380247 
L 319.158097 133.966449 
L 322.539915 141.301281 
L 325.921733 147.039242 
L 329.303551 138.917635 
L 332.685369 132.312184 
L 336.067188 122.78373 
L 339.449006 114.583067 
L 342.830824 107.389884 
L 346.212642 100.90668 
L 349.59446 94.964964 
L 352.976278 90.797194 
L 356.358097 90.787872 
L 359.739915 90.777809 
L 363.121733 90.766828 
L 366.503551 90.754712 
L 369.885369 90.741185 
L 373.267188 90.725862 
" style="fill:none;stroke:#17becf;stroke-linecap:square;stroke-width:1.5;"/>
   </g>
   <g id="line2d_28">
    <path clip-path="url(#p1f5ba0a278)" d="M 38.467188 54.373395 
L 41.849006 54.02438 
L 45.230824 53.701406 
L 48.612642 53.404359 
L 51.99446 53.133139 
L 55.376278 52.887658 
L 58.758097 52.667837 
L 62.139915 52.473606 
L 65.521733 52.304908 
L 68.903551 52.161691 
L 72.285369 52.043913 
L 75.667188 51.951539 
L 79.049006 51.884543 
L 82.430824 51.842906 
L 85.812642 51.826614 
L 89.19446 51.835665 
L 92.576278 51.87006 
L 95.958097 51.929809 
L 99.339915 52.01493 
L 102.721733 52.125446 
L 106.103551 52.261391 
L 109.485369 52.422804 
L 112.867188 52.609734 
L 116.249006 52.822237 
L 119.630824 53.060379 
L 123.012642 53.324236 
L 126.39446 53.613894 
L 129.776278 53.92945 
L 133.158097 54.271012 
L 136.539915 54.638703 
L 139.921733 55.032661 
L 143.303551 55.45304 
L 146.685369 55.900011 
L 150.067188 56.37377 
L 153.449006 56.874537 
L 156.830824 57.402561 
L 160.212642 57.958129 
L 163.59446 58.541569 
L 166.976278 59.153267 
L 170.358097 59.793675 
L 173.739915 60.463339 
L 177.121733 61.16292 
L 180.503551 61.893245 
L 183.885369 62.655361 
L 187.267188 63.450637 
L 190.649006 64.280897 
L 194.030824 65.148646 
L 197.412642 66.057389 
L 200.79446 67.012106 
L 204.176278 68.019846 
L 207.558097 69.090126 
L 210.939915 70.233913 
L 214.321733 71.457581 
L 217.703551 72.744735 
L 221.085369 74.024036 
L 224.467188 75.175913 
L 227.849006 76.170868 
L 231.230824 77.120206 
L 234.612642 77.859763 
L 237.99446 78.092635 
L 241.376278 78.255055 
L 244.758097 78.371605 
L 248.139915 78.457993 
L 251.521733 78.524015 
L 254.903551 78.575857 
L 258.285369 78.617529 
L 261.667187 78.651707 
L 265.049006 78.680234 
L 268.430824 78.70441 
L 271.812642 78.725176 
L 275.19446 78.74323 
L 278.576278 78.759101 
L 281.958097 78.773196 
L 285.339915 78.785835 
L 288.721733 78.797278 
L 292.103551 80.812741 
L 295.485369 85.743614 
L 298.867188 90.799744 
L 302.249006 90.808339 
L 305.630824 90.816536 
L 309.012642 97.400209 
L 312.39446 104.842893 
L 315.776278 113.41955 
L 319.158097 123.603226 
L 322.539915 134.155312 
L 325.921733 139.059665 
L 329.303551 131.34285 
L 332.685369 120.530139 
L 336.067188 110.822443 
L 339.449006 102.620702 
L 342.830824 95.427011 
L 346.212642 90.814224 
L 349.59446 90.80593 
L 352.976278 89.456179 
L 356.358097 84.304714 
L 359.739915 79.455449 
L 363.121733 78.794118 
L 366.503551 78.782356 
L 369.885369 78.76933 
L 373.267188 78.754763 
" style="fill:none;stroke:#1f77b4;stroke-linecap:square;stroke-width:1.5;"/>
   </g>
   <g id="line2d_29">
    <path clip-path="url(#p1f5ba0a278)" d="M 38.467188 36.211716 
L 41.849006 35.524759 
L 45.230824 34.88864 
L 48.612642 34.303253 
L 51.99446 33.768498 
L 55.376278 33.284281 
L 58.758097 32.850516 
L 62.139915 32.467127 
L 65.521733 32.134044 
L 68.903551 31.851207 
L 72.285369 31.618567 
L 75.667188 31.436079 
L 79.049006 31.303711 
L 82.430824 31.221439 
L 85.812642 31.189247 
L 89.19446 31.207131 
L 92.576278 31.275093 
L 95.958097 31.393146 
L 99.339915 31.561311 
L 102.721733 31.779619 
L 106.103551 32.048109 
L 109.485369 32.36683 
L 112.867188 32.735839 
L 116.249006 33.155203 
L 119.630824 33.624997 
L 123.012642 34.145304 
L 126.39446 34.716214 
L 129.776278 35.337828 
L 133.158097 36.010248 
L 136.539915 36.733587 
L 139.921733 37.507958 
L 143.303551 38.333478 
L 146.685369 39.210263 
L 150.067188 40.138424 
L 153.449006 41.118065 
L 156.830824 42.14927 
L 160.212642 43.232103 
L 163.59446 44.366584 
L 166.976278 45.552682 
L 170.358097 46.790282 
L 173.739915 48.079154 
L 177.121733 49.4189 
L 180.503551 50.808882 
L 183.885369 52.248108 
L 187.267188 53.735069 
L 190.649006 55.267487 
L 194.030824 56.841917 
L 197.412642 58.453133 
L 200.79446 60.093168 
L 204.176278 61.749842 
L 207.558097 63.404729 
L 210.939915 65.030894 
L 214.321733 66.592012 
L 217.703551 68.045748 
L 221.085369 69.352167 
L 224.467188 70.481085 
L 227.849006 71.413724 
L 231.230824 72.145966 
L 234.612642 72.694955 
L 237.99446 73.095827 
L 241.376278 73.387828 
L 244.758097 73.603626 
L 248.139915 73.766697 
L 251.521733 73.892924 
L 254.903551 73.992898 
L 258.285369 74.073742 
L 261.667187 74.140334 
L 265.049006 74.196089 
L 268.430824 74.243449 
L 271.812642 74.284201 
L 275.19446 74.319678 
L 278.576278 74.350895 
L 281.958097 74.378637 
L 285.339915 74.403526 
L 288.721733 76.153318 
L 292.103551 78.807733 
L 295.485369 78.817383 
L 298.867188 79.027283 
L 302.249006 84.651093 
L 305.630824 90.734765 
L 309.012642 93.299149 
L 312.39446 100.728121 
L 315.776278 109.290551 
L 319.158097 119.459493 
L 322.539915 130.002559 
L 325.921733 134.909155 
L 329.303551 127.191282 
L 332.685369 116.390525 
L 336.067188 106.697595 
L 339.449006 98.509876 
L 342.830824 91.329843 
L 346.212642 88.943497 
L 349.59446 83.001562 
L 352.976278 78.823869 
L 356.358097 78.814699 
L 359.739915 78.804835 
L 363.121733 74.866892 
L 366.503551 74.396675 
L 369.885369 74.371027 
L 373.267188 74.342361 
" style="fill:none;stroke:#ff7f0e;stroke-linecap:square;stroke-width:1.5;"/>
   </g>
   <g id="line2d_30">
    <path clip-path="url(#p1f5ba0a278)" d="M 38.467188 14.646406 
L 41.849006 14.639946 
L 45.230824 14.634149 
L 48.612642 14.628965 
L 51.99446 14.62435 
L 55.376278 14.620266 
L 58.758097 14.616683 
L 62.139915 14.613574 
L 65.521733 14.610914 
L 68.903551 14.608686 
L 72.285369 14.606874 
L 75.667188 14.605466 
L 79.049006 14.604451 
L 82.430824 14.603823 
L 85.812642 14.603578 
L 89.19446 14.603714 
L 92.576278 14.604232 
L 95.958097 14.605136 
L 99.339915 14.606431 
L 102.721733 14.608127 
L 106.103551 14.610235 
L 109.485369 14.612769 
L 112.867188 14.615748 
L 116.249006 14.619193 
L 119.630824 14.62313 
L 123.012642 14.62759 
L 126.39446 14.632607 
L 129.776278 14.638224 
L 133.158097 14.644489 
L 136.539915 14.651458 
L 139.921733 14.659198 
L 143.303551 14.667786 
L 146.685369 14.677313 
L 150.067188 14.687886 
L 153.449006 14.699633 
L 156.830824 14.712706 
L 160.212642 14.727286 
L 163.59446 14.743594 
L 166.976278 14.761899 
L 170.358097 14.782531 
L 173.739915 14.805902 
L 177.121733 14.832528 
L 180.503551 14.863071 
L 183.885369 14.898383 
L 187.267188 14.939591 
L 190.649006 14.988207 
L 194.030824 15.046305 
L 197.412642 15.116817 
L 200.79446 15.204008 
L 204.176278 15.314325 
L 207.558097 15.45797 
L 210.939915 15.652007 
L 214.321733 15.926891 
L 217.703551 16.340392 
L 221.085369 17.000944 
L 224.467188 18.060668 
L 227.849006 19.584853 
L 231.230824 21.478372 
L 234.612642 23.623023 
L 237.99446 25.947988 
L 241.376278 28.416973 
L 244.758097 31.011549 
L 248.139915 33.722558 
L 251.521733 36.546057 
L 254.903551 39.48135 
L 258.285369 42.529991 
L 261.667187 45.695284 
L 265.049006 48.982061 
L 268.430824 52.396636 
L 271.812642 55.94688 
L 275.19446 59.642417 
L 278.576278 63.494935 
L 281.958097 67.518646 
L 285.339915 71.73094 
L 288.721733 74.426059 
L 292.103551 74.446647 
L 295.485369 74.465635 
L 298.867188 78.826382 
L 302.249006 80.577589 
L 305.630824 86.647365 
L 309.012642 90.824481 
L 312.39446 90.832373 
L 315.776278 90.840505 
L 319.158097 90.849496 
L 322.539915 90.860808 
L 325.921733 90.86922 
L 329.303551 90.857236 
L 332.685369 90.846775 
L 336.067188 90.838131 
L 339.449006 90.83011 
L 342.830824 90.822225 
L 346.212642 84.86003 
L 349.59446 78.93211 
L 352.976278 77.492606 
L 356.358097 74.460355 
L 359.739915 74.440942 
L 363.121733 74.419836 
L 366.503551 70.50702 
L 369.885369 66.350599 
L 373.267188 62.377421 
" style="fill:none;stroke:#2ca02c;stroke-linecap:square;stroke-width:1.5;"/>
   </g>
   <g id="line2d_31">
    <path clip-path="url(#p1f5ba0a278)" d="M 38.467188 10.700001 
L 41.849006 10.700001 
L 45.230824 10.700001 
L 48.612642 10.700001 
L 51.99446 10.7 
L 55.376278 10.7 
L 58.758097 10.7 
L 62.139915 10.7 
L 65.521733 10.7 
L 68.903551 10.7 
L 72.285369 10.7 
L 75.667188 10.7 
L 79.049006 10.7 
L 82.430824 10.7 
L 85.812642 10.7 
L 89.19446 10.7 
L 92.576278 10.7 
L 95.958097 10.7 
L 99.339915 10.7 
L 102.721733 10.7 
L 106.103551 10.7 
L 109.485369 10.7 
L 112.867188 10.7 
L 116.249006 10.7 
L 119.630824 10.7 
L 123.012642 10.700001 
L 126.39446 10.700001 
L 129.776278 10.700001 
L 133.158097 10.700001 
L 136.539915 10.700001 
L 139.921733 10.700001 
L 143.303551 10.700001 
L 146.685369 10.700002 
L 150.067188 10.700002 
L 153.449006 10.700002 
L 156.830824 10.700003 
L 160.212642 10.700003 
L 163.59446 10.700003 
L 166.976278 10.700004 
L 170.358097 10.700004 
L 173.739915 10.700005 
L 177.121733 10.700006 
L 180.503551 10.700007 
L 183.885369 10.700008 
L 187.267188 10.700009 
L 190.649006 10.700011 
L 194.030824 10.700013 
L 197.412642 10.700016 
L 200.79446 10.700021 
L 204.176278 10.700027 
L 207.558097 10.70004 
L 210.939915 10.700079 
L 214.321733 10.930615 
L 217.703551 12.215969 
L 221.085369 13.50242 
L 224.467188 14.671579 
L 227.849006 15.68085 
L 231.230824 16.634009 
L 234.612642 17.637227 
L 237.99446 18.730917 
L 241.376278 19.916187 
L 244.758097 21.182915 
L 248.139915 22.521696 
L 251.521733 24.580149 
L 254.903551 27.515777 
L 258.285369 30.564693 
L 261.667187 33.730215 
L 265.049006 37.017188 
L 268.430824 40.431933 
L 271.812642 43.982329 
L 275.19446 47.678003 
L 278.576278 51.530649 
L 281.958097 55.554481 
L 285.339915 59.766892 
L 288.721733 64.189387 
L 292.103551 68.848932 
L 295.485369 73.779937 
L 298.867188 74.968145 
L 302.249006 78.834874 
L 305.630824 78.843006 
L 309.012642 78.850941 
L 312.39446 78.858903 
L 315.776278 78.867312 
L 319.158097 78.877578 
L 322.539915 80.799784 
L 325.921733 86.531226 
L 329.303551 78.913947 
L 332.685369 78.874224 
L 336.067188 78.864821 
L 339.449006 78.856607 
L 342.830824 78.848682 
L 346.212642 78.840711 
L 349.59446 78.832487 
L 352.976278 74.478387 
L 356.358097 72.340997 
L 359.739915 67.491603 
L 363.121733 62.902927 
L 366.503551 58.542938 
L 369.885369 54.3864 
L 373.267188 50.4131 
" style="fill:none;stroke:#d62728;stroke-linecap:square;stroke-width:1.5;"/>
   </g>
   <g id="patch_3">
    <path d="M 38.467188 228.14 
L 38.467188 10.7 
" style="fill:none;stroke:#000000;stroke-linecap:square;stroke-linejoin:miter;stroke-width:0.8;"/>
   </g>
   <g id="patch_4">
    <path d="M 373.267188 228.14 
L 373.267188 10.7 
" style="fill:none;stroke:#000000;stroke-linecap:square;stroke-linejoin:miter;stroke-width:0.8;"/>
   </g>
   <g id="patch_5">
    <path d="M 38.467188 228.14 
L 373.267188 228.14 
" style="fill:none;stroke:#000000;stroke-linecap:square;stroke-linejoin:miter;stroke-width:0.8;"/>
   </g>
   <g id="patch_6">
    <path d="M 38.467188 10.7 
L 373.267188 10.7 
" style="fill:none;stroke:#000000;stroke-linecap:square;stroke-linejoin:miter;stroke-width:0.8;"/>
   </g>
  </g>
 </g>
 <defs>
  <clipPath id="p1f5ba0a278">
   <rect height="217.44" width="334.8" x="38.467188" y="10.7"/>
  </clipPath>
 </defs>
</svg>
