<?xml version="1.0" encoding="utf-8" standalone="no"?>
<!DOCTYPE svg PUBLIC "-//W3C//DTD SVG 1.1//EN"
  "http://www.w3.org/Graphics/SVG/1.1/DTD/svg11.dtd">
<!-- Created with matplotlib (https://matplotlib.org/) -->
<svg height="264.630625pt" version="1.1" viewBox="0 0 392.30625 264.630625" width="392.30625pt" xmlns="http://www.w3.org/2000/svg" xmlns:xlink="http://www.w3.org/1999/xlink">
 <defs>
  <style type="text/css">
*{stroke-linecap:butt;stroke-linejoin:round;}
  </style>
 </defs>
 <g id="figure_1">
  <g id="patch_1">
   <path d="M 0 264.630625 
L 392.30625 264.630625 
L 392.30625 0 
L 0 0 
z
" style="fill:none;"/>
  </g>
  <g id="axes_1">
   <g id="patch_2">
    <path d="M 46.80625 228.14 
L 381.60625 228.14 
L 381.60625 10.7 
L 46.80625 10.7 
z
" style="fill:#ffffff;"/>
   </g>
   <g id="matplotlib.axis_1">
    <g id="xtick_1">
     <g id="line2d_1">
      <defs>
       <path d="M 0 0 
L 0 3.5 
" id="m246346bf3c" style="stroke:#000000;stroke-width:0.8;"/>
      </defs>
      <g>
       <use style="stroke:#000000;stroke-width:0.8;" x="62.024432" xlink:href="#m246346bf3c" y="228.14"/>
      </g>
     </g>
     <g id="text_1">
      <!-- −2.0 -->
      <defs>
       <path d="M 52.828125 31.203125 
L 5.5625 31.203125 
L 5.5625 39.40625 
L 52.828125 39.40625 
z
" id="ArialMT-8722"/>
       <path d="M 50.34375 8.453125 
L 50.34375 0 
L 3.03125 0 
Q 2.9375 3.171875 4.046875 6.109375 
Q 5.859375 10.9375 9.828125 15.625 
Q 13.8125 20.3125 21.34375 26.46875 
Q 33.015625 36.03125 37.109375 41.625 
Q 41.21875 47.21875 41.21875 52.203125 
Q 41.21875 57.421875 37.46875 61 
Q 33.734375 64.59375 27.734375 64.59375 
Q 21.390625 64.59375 17.578125 60.78125 
Q 13.765625 56.984375 13.71875 50.25 
L 4.6875 51.171875 
Q 5.609375 61.28125 11.65625 66.578125 
Q 17.71875 71.875 27.9375 71.875 
Q 38.234375 71.875 44.234375 66.15625 
Q 50.25 60.453125 50.25 52 
Q 50.25 47.703125 48.484375 43.546875 
Q 46.734375 39.40625 42.65625 34.8125 
Q 38.578125 30.21875 29.109375 22.21875 
Q 21.1875 15.578125 18.9375 13.203125 
Q 16.703125 10.84375 15.234375 8.453125 
z
" id="ArialMT-50"/>
       <path d="M 9.078125 0 
L 9.078125 10.015625 
L 19.09375 10.015625 
L 19.09375 0 
z
" id="ArialMT-46"/>
       <path d="M 4.15625 35.296875 
Q 4.15625 48 6.765625 55.734375 
Q 9.375 63.484375 14.515625 67.671875 
Q 19.671875 71.875 27.484375 71.875 
Q 33.25 71.875 37.59375 69.546875 
Q 41.9375 67.234375 44.765625 62.859375 
Q 47.609375 58.5 49.21875 52.21875 
Q 50.828125 45.953125 50.828125 35.296875 
Q 50.828125 22.703125 48.234375 14.96875 
Q 45.65625 7.234375 40.5 3 
Q 35.359375 -1.21875 27.484375 -1.21875 
Q 17.140625 -1.21875 11.234375 6.203125 
Q 4.15625 15.140625 4.15625 35.296875 
z
M 13.1875 35.296875 
Q 13.1875 17.671875 17.3125 11.828125 
Q 21.4375 6 27.484375 6 
Q 33.546875 6 37.671875 11.859375 
Q 41.796875 17.71875 41.796875 35.296875 
Q 41.796875 52.984375 37.671875 58.78125 
Q 33.546875 64.59375 27.390625 64.59375 
Q 21.34375 64.59375 17.71875 59.46875 
Q 13.1875 52.9375 13.1875 35.296875 
z
" id="ArialMT-48"/>
      </defs>
      <g transform="translate(52.154119 242.297812)scale(0.1 -0.1)">
       <use xlink:href="#ArialMT-8722"/>
       <use x="58.398438" xlink:href="#ArialMT-50"/>
       <use x="114.013672" xlink:href="#ArialMT-46"/>
       <use x="141.796875" xlink:href="#ArialMT-48"/>
      </g>
     </g>
    </g>
    <g id="xtick_2">
     <g id="line2d_2">
      <g>
       <use style="stroke:#000000;stroke-width:0.8;" x="100.069886" xlink:href="#m246346bf3c" y="228.14"/>
      </g>
     </g>
     <g id="text_2">
      <!-- −1.5 -->
      <defs>
       <path d="M 37.25 0 
L 28.46875 0 
L 28.46875 56 
Q 25.296875 52.984375 20.140625 49.953125 
Q 14.984375 46.921875 10.890625 45.40625 
L 10.890625 53.90625 
Q 18.265625 57.375 23.78125 62.296875 
Q 29.296875 67.234375 31.59375 71.875 
L 37.25 71.875 
z
" id="ArialMT-49"/>
       <path d="M 4.15625 18.75 
L 13.375 19.53125 
Q 14.40625 12.796875 18.140625 9.390625 
Q 21.875 6 27.15625 6 
Q 33.5 6 37.890625 10.78125 
Q 42.28125 15.578125 42.28125 23.484375 
Q 42.28125 31 38.0625 35.34375 
Q 33.84375 39.703125 27 39.703125 
Q 22.75 39.703125 19.328125 37.765625 
Q 15.921875 35.84375 13.96875 32.765625 
L 5.71875 33.84375 
L 12.640625 70.609375 
L 48.25 70.609375 
L 48.25 62.203125 
L 19.671875 62.203125 
L 15.828125 42.96875 
Q 22.265625 47.46875 29.34375 47.46875 
Q 38.71875 47.46875 45.15625 40.96875 
Q 51.609375 34.46875 51.609375 24.265625 
Q 51.609375 14.546875 45.953125 7.46875 
Q 39.0625 -1.21875 27.15625 -1.21875 
Q 17.390625 -1.21875 11.203125 4.25 
Q 5.03125 9.71875 4.15625 18.75 
z
" id="ArialMT-53"/>
      </defs>
      <g transform="translate(90.199574 242.297812)scale(0.1 -0.1)">
       <use xlink:href="#ArialMT-8722"/>
       <use x="58.398438" xlink:href="#ArialMT-49"/>
       <use x="114.013672" xlink:href="#ArialMT-46"/>
       <use x="141.796875" xlink:href="#ArialMT-53"/>
      </g>
     </g>
    </g>
    <g id="xtick_3">
     <g id="line2d_3">
      <g>
       <use style="stroke:#000000;stroke-width:0.8;" x="138.115341" xlink:href="#m246346bf3c" y="228.14"/>
      </g>
     </g>
     <g id="text_3">
      <!-- −1.0 -->
      <g transform="translate(128.245028 242.297812)scale(0.1 -0.1)">
       <use xlink:href="#ArialMT-8722"/>
       <use x="58.398438" xlink:href="#ArialMT-49"/>
       <use x="114.013672" xlink:href="#ArialMT-46"/>
       <use x="141.796875" xlink:href="#ArialMT-48"/>
      </g>
     </g>
    </g>
    <g id="xtick_4">
     <g id="line2d_4">
      <g>
       <use style="stroke:#000000;stroke-width:0.8;" x="176.160795" xlink:href="#m246346bf3c" y="228.14"/>
      </g>
     </g>
     <g id="text_4">
      <!-- −0.5 -->
      <g transform="translate(166.290483 242.297812)scale(0.1 -0.1)">
       <use xlink:href="#ArialMT-8722"/>
       <use x="58.398438" xlink:href="#ArialMT-48"/>
       <use x="114.013672" xlink:href="#ArialMT-46"/>
       <use x="141.796875" xlink:href="#ArialMT-53"/>
      </g>
     </g>
    </g>
    <g id="xtick_5">
     <g id="line2d_5">
      <g>
       <use style="stroke:#000000;stroke-width:0.8;" x="214.20625" xlink:href="#m246346bf3c" y="228.14"/>
      </g>
     </g>
     <g id="text_5">
      <!-- 0.0 -->
      <g transform="translate(207.25625 242.297812)scale(0.1 -0.1)">
       <use xlink:href="#ArialMT-48"/>
       <use x="55.615234" xlink:href="#ArialMT-46"/>
       <use x="83.398438" xlink:href="#ArialMT-48"/>
      </g>
     </g>
    </g>
    <g id="xtick_6">
     <g id="line2d_6">
      <g>
       <use style="stroke:#000000;stroke-width:0.8;" x="252.251705" xlink:href="#m246346bf3c" y="228.14"/>
      </g>
     </g>
     <g id="text_6">
      <!-- 0.5 -->
      <g transform="translate(245.301705 242.297812)scale(0.1 -0.1)">
       <use xlink:href="#ArialMT-48"/>
       <use x="55.615234" xlink:href="#ArialMT-46"/>
       <use x="83.398438" xlink:href="#ArialMT-53"/>
      </g>
     </g>
    </g>
    <g id="xtick_7">
     <g id="line2d_7">
      <g>
       <use style="stroke:#000000;stroke-width:0.8;" x="290.297159" xlink:href="#m246346bf3c" y="228.14"/>
      </g>
     </g>
     <g id="text_7">
      <!-- 1.0 -->
      <g transform="translate(283.347159 242.297812)scale(0.1 -0.1)">
       <use xlink:href="#ArialMT-49"/>
       <use x="55.615234" xlink:href="#ArialMT-46"/>
       <use x="83.398438" xlink:href="#ArialMT-48"/>
      </g>
     </g>
    </g>
    <g id="xtick_8">
     <g id="line2d_8">
      <g>
       <use style="stroke:#000000;stroke-width:0.8;" x="328.342614" xlink:href="#m246346bf3c" y="228.14"/>
      </g>
     </g>
     <g id="text_8">
      <!-- 1.5 -->
      <g transform="translate(321.392614 242.297812)scale(0.1 -0.1)">
       <use xlink:href="#ArialMT-49"/>
       <use x="55.615234" xlink:href="#ArialMT-46"/>
       <use x="83.398438" xlink:href="#ArialMT-53"/>
      </g>
     </g>
    </g>
    <g id="xtick_9">
     <g id="line2d_9">
      <g>
       <use style="stroke:#000000;stroke-width:0.8;" x="366.388068" xlink:href="#m246346bf3c" y="228.14"/>
      </g>
     </g>
     <g id="text_9">
      <!-- 2.0 -->
      <g transform="translate(359.438068 242.297812)scale(0.1 -0.1)">
       <use xlink:href="#ArialMT-50"/>
       <use x="55.615234" xlink:href="#ArialMT-46"/>
       <use x="83.398438" xlink:href="#ArialMT-48"/>
      </g>
     </g>
    </g>
    <g id="text_10">
     <!-- ng -->
     <defs>
      <path d="M 6.59375 0 
L 6.59375 51.859375 
L 14.5 51.859375 
L 14.5 44.484375 
Q 20.21875 53.03125 31 53.03125 
Q 35.6875 53.03125 39.625 51.34375 
Q 43.5625 49.65625 45.515625 46.921875 
Q 47.46875 44.1875 48.25 40.4375 
Q 48.734375 37.984375 48.734375 31.890625 
L 48.734375 0 
L 39.9375 0 
L 39.9375 31.546875 
Q 39.9375 36.921875 38.90625 39.578125 
Q 37.890625 42.234375 35.28125 43.8125 
Q 32.671875 45.40625 29.15625 45.40625 
Q 23.53125 45.40625 19.453125 41.84375 
Q 15.375 38.28125 15.375 28.328125 
L 15.375 0 
z
" id="ArialMT-110"/>
      <path d="M 4.984375 -4.296875 
L 13.53125 -5.5625 
Q 14.0625 -9.515625 16.5 -11.328125 
Q 19.78125 -13.765625 25.4375 -13.765625 
Q 31.546875 -13.765625 34.859375 -11.328125 
Q 38.1875 -8.890625 39.359375 -4.5 
Q 40.046875 -1.8125 39.984375 6.78125 
Q 34.234375 0 25.640625 0 
Q 14.9375 0 9.078125 7.71875 
Q 3.21875 15.4375 3.21875 26.21875 
Q 3.21875 33.640625 5.90625 39.90625 
Q 8.59375 46.1875 13.6875 49.609375 
Q 18.796875 53.03125 25.6875 53.03125 
Q 34.859375 53.03125 40.828125 45.609375 
L 40.828125 51.859375 
L 48.921875 51.859375 
L 48.921875 7.03125 
Q 48.921875 -5.078125 46.453125 -10.125 
Q 44 -15.1875 38.640625 -18.109375 
Q 33.296875 -21.046875 25.484375 -21.046875 
Q 16.21875 -21.046875 10.5 -16.875 
Q 4.78125 -12.703125 4.984375 -4.296875 
z
M 12.25 26.859375 
Q 12.25 16.65625 16.296875 11.96875 
Q 20.359375 7.28125 26.46875 7.28125 
Q 32.515625 7.28125 36.609375 11.9375 
Q 40.71875 16.609375 40.71875 26.5625 
Q 40.71875 36.078125 36.5 40.90625 
Q 32.28125 45.75 26.3125 45.75 
Q 20.453125 45.75 16.34375 40.984375 
Q 12.25 36.234375 12.25 26.859375 
z
" id="ArialMT-103"/>
     </defs>
     <g transform="translate(208.645312 255.325937)scale(0.1 -0.1)">
      <use xlink:href="#ArialMT-110"/>
      <use x="55.615234" xlink:href="#ArialMT-103"/>
     </g>
    </g>
   </g>
   <g id="matplotlib.axis_2">
    <g id="ytick_1">
     <g id="line2d_10">
      <defs>
       <path d="M 0 0 
L -3.5 0 
" id="m89da87b8e8" style="stroke:#000000;stroke-width:0.8;"/>
      </defs>
      <g>
       <use style="stroke:#000000;stroke-width:0.8;" x="46.80625" xlink:href="#m89da87b8e8" y="218.256364"/>
      </g>
     </g>
     <g id="text_11">
      <!-- 0.00 -->
      <g transform="translate(20.345313 221.83527)scale(0.1 -0.1)">
       <use xlink:href="#ArialMT-48"/>
       <use x="55.615234" xlink:href="#ArialMT-46"/>
       <use x="83.398438" xlink:href="#ArialMT-48"/>
       <use x="139.013672" xlink:href="#ArialMT-48"/>
      </g>
     </g>
    </g>
    <g id="ytick_2">
     <g id="line2d_11">
      <g>
       <use style="stroke:#000000;stroke-width:0.8;" x="46.80625" xlink:href="#m89da87b8e8" y="193.547273"/>
      </g>
     </g>
     <g id="text_12">
      <!-- 0.25 -->
      <g transform="translate(20.345313 197.126179)scale(0.1 -0.1)">
       <use xlink:href="#ArialMT-48"/>
       <use x="55.615234" xlink:href="#ArialMT-46"/>
       <use x="83.398438" xlink:href="#ArialMT-50"/>
       <use x="139.013672" xlink:href="#ArialMT-53"/>
      </g>
     </g>
    </g>
    <g id="ytick_3">
     <g id="line2d_12">
      <g>
       <use style="stroke:#000000;stroke-width:0.8;" x="46.80625" xlink:href="#m89da87b8e8" y="168.838182"/>
      </g>
     </g>
     <g id="text_13">
      <!-- 0.50 -->
      <g transform="translate(20.345313 172.417088)scale(0.1 -0.1)">
       <use xlink:href="#ArialMT-48"/>
       <use x="55.615234" xlink:href="#ArialMT-46"/>
       <use x="83.398438" xlink:href="#ArialMT-53"/>
       <use x="139.013672" xlink:href="#ArialMT-48"/>
      </g>
     </g>
    </g>
    <g id="ytick_4">
     <g id="line2d_13">
      <g>
       <use style="stroke:#000000;stroke-width:0.8;" x="46.80625" xlink:href="#m89da87b8e8" y="144.129091"/>
      </g>
     </g>
     <g id="text_14">
      <!-- 0.75 -->
      <defs>
       <path d="M 4.734375 62.203125 
L 4.734375 70.65625 
L 51.078125 70.65625 
L 51.078125 63.8125 
Q 44.234375 56.546875 37.515625 44.484375 
Q 30.8125 32.421875 27.15625 19.671875 
Q 24.515625 10.6875 23.78125 0 
L 14.75 0 
Q 14.890625 8.453125 18.0625 20.40625 
Q 21.234375 32.375 27.171875 43.484375 
Q 33.109375 54.59375 39.796875 62.203125 
z
" id="ArialMT-55"/>
      </defs>
      <g transform="translate(20.345313 147.707997)scale(0.1 -0.1)">
       <use xlink:href="#ArialMT-48"/>
       <use x="55.615234" xlink:href="#ArialMT-46"/>
       <use x="83.398438" xlink:href="#ArialMT-55"/>
       <use x="139.013672" xlink:href="#ArialMT-53"/>
      </g>
     </g>
    </g>
    <g id="ytick_5">
     <g id="line2d_14">
      <g>
       <use style="stroke:#000000;stroke-width:0.8;" x="46.80625" xlink:href="#m89da87b8e8" y="119.42"/>
      </g>
     </g>
     <g id="text_15">
      <!-- 1.00 -->
      <g transform="translate(20.345313 122.998906)scale(0.1 -0.1)">
       <use xlink:href="#ArialMT-49"/>
       <use x="55.615234" xlink:href="#ArialMT-46"/>
       <use x="83.398438" xlink:href="#ArialMT-48"/>
       <use x="139.013672" xlink:href="#ArialMT-48"/>
      </g>
     </g>
    </g>
    <g id="ytick_6">
     <g id="line2d_15">
      <g>
       <use style="stroke:#000000;stroke-width:0.8;" x="46.80625" xlink:href="#m89da87b8e8" y="94.710909"/>
      </g>
     </g>
     <g id="text_16">
      <!-- 1.25 -->
      <g transform="translate(20.345313 98.289815)scale(0.1 -0.1)">
       <use xlink:href="#ArialMT-49"/>
       <use x="55.615234" xlink:href="#ArialMT-46"/>
       <use x="83.398438" xlink:href="#ArialMT-50"/>
       <use x="139.013672" xlink:href="#ArialMT-53"/>
      </g>
     </g>
    </g>
    <g id="ytick_7">
     <g id="line2d_16">
      <g>
       <use style="stroke:#000000;stroke-width:0.8;" x="46.80625" xlink:href="#m89da87b8e8" y="70.001818"/>
      </g>
     </g>
     <g id="text_17">
      <!-- 1.50 -->
      <g transform="translate(20.345313 73.580724)scale(0.1 -0.1)">
       <use xlink:href="#ArialMT-49"/>
       <use x="55.615234" xlink:href="#ArialMT-46"/>
       <use x="83.398438" xlink:href="#ArialMT-53"/>
       <use x="139.013672" xlink:href="#ArialMT-48"/>
      </g>
     </g>
    </g>
    <g id="ytick_8">
     <g id="line2d_17">
      <g>
       <use style="stroke:#000000;stroke-width:0.8;" x="46.80625" xlink:href="#m89da87b8e8" y="45.292727"/>
      </g>
     </g>
     <g id="text_18">
      <!-- 1.75 -->
      <g transform="translate(20.345313 48.871634)scale(0.1 -0.1)">
       <use xlink:href="#ArialMT-49"/>
       <use x="55.615234" xlink:href="#ArialMT-46"/>
       <use x="83.398438" xlink:href="#ArialMT-55"/>
       <use x="139.013672" xlink:href="#ArialMT-53"/>
      </g>
     </g>
    </g>
    <g id="ytick_9">
     <g id="line2d_18">
      <g>
       <use style="stroke:#000000;stroke-width:0.8;" x="46.80625" xlink:href="#m89da87b8e8" y="20.583636"/>
      </g>
     </g>
     <g id="text_19">
      <!-- 2.00 -->
      <g transform="translate(20.345313 24.162543)scale(0.1 -0.1)">
       <use xlink:href="#ArialMT-50"/>
       <use x="55.615234" xlink:href="#ArialMT-46"/>
       <use x="83.398438" xlink:href="#ArialMT-48"/>
       <use x="139.013672" xlink:href="#ArialMT-48"/>
      </g>
     </g>
    </g>
    <g id="text_20">
     <!-- matrix element -->
     <defs>
      <path d="M 6.59375 0 
L 6.59375 51.859375 
L 14.453125 51.859375 
L 14.453125 44.578125 
Q 16.890625 48.390625 20.9375 50.703125 
Q 25 53.03125 30.171875 53.03125 
Q 35.9375 53.03125 39.625 50.640625 
Q 43.3125 48.25 44.828125 43.953125 
Q 50.984375 53.03125 60.84375 53.03125 
Q 68.5625 53.03125 72.703125 48.75 
Q 76.859375 44.484375 76.859375 35.59375 
L 76.859375 0 
L 68.109375 0 
L 68.109375 32.671875 
Q 68.109375 37.9375 67.25 40.25 
Q 66.40625 42.578125 64.15625 43.984375 
Q 61.921875 45.40625 58.890625 45.40625 
Q 53.421875 45.40625 49.796875 41.765625 
Q 46.1875 38.140625 46.1875 30.125 
L 46.1875 0 
L 37.40625 0 
L 37.40625 33.6875 
Q 37.40625 39.546875 35.25 42.46875 
Q 33.109375 45.40625 28.21875 45.40625 
Q 24.515625 45.40625 21.359375 43.453125 
Q 18.21875 41.5 16.796875 37.734375 
Q 15.375 33.984375 15.375 26.90625 
L 15.375 0 
z
" id="ArialMT-109"/>
      <path d="M 40.4375 6.390625 
Q 35.546875 2.25 31.03125 0.53125 
Q 26.515625 -1.171875 21.34375 -1.171875 
Q 12.796875 -1.171875 8.203125 3 
Q 3.609375 7.171875 3.609375 13.671875 
Q 3.609375 17.484375 5.34375 20.625 
Q 7.078125 23.78125 9.890625 25.6875 
Q 12.703125 27.59375 16.21875 28.5625 
Q 18.796875 29.25 24.03125 29.890625 
Q 34.671875 31.15625 39.703125 32.90625 
Q 39.75 34.71875 39.75 35.203125 
Q 39.75 40.578125 37.25 42.78125 
Q 33.890625 45.75 27.25 45.75 
Q 21.046875 45.75 18.09375 43.578125 
Q 15.140625 41.40625 13.71875 35.890625 
L 5.125 37.0625 
Q 6.296875 42.578125 8.984375 45.96875 
Q 11.671875 49.359375 16.75 51.1875 
Q 21.828125 53.03125 28.515625 53.03125 
Q 35.15625 53.03125 39.296875 51.46875 
Q 43.453125 49.90625 45.40625 47.53125 
Q 47.359375 45.171875 48.140625 41.546875 
Q 48.578125 39.3125 48.578125 33.453125 
L 48.578125 21.734375 
Q 48.578125 9.46875 49.140625 6.21875 
Q 49.703125 2.984375 51.375 0 
L 42.1875 0 
Q 40.828125 2.734375 40.4375 6.390625 
z
M 39.703125 26.03125 
Q 34.90625 24.078125 25.34375 22.703125 
Q 19.921875 21.921875 17.671875 20.9375 
Q 15.4375 19.96875 14.203125 18.09375 
Q 12.984375 16.21875 12.984375 13.921875 
Q 12.984375 10.40625 15.640625 8.0625 
Q 18.3125 5.71875 23.4375 5.71875 
Q 28.515625 5.71875 32.46875 7.9375 
Q 36.421875 10.15625 38.28125 14.015625 
Q 39.703125 17 39.703125 22.796875 
z
" id="ArialMT-97"/>
      <path d="M 25.78125 7.859375 
L 27.046875 0.09375 
Q 23.34375 -0.6875 20.40625 -0.6875 
Q 15.625 -0.6875 12.984375 0.828125 
Q 10.359375 2.34375 9.28125 4.8125 
Q 8.203125 7.28125 8.203125 15.1875 
L 8.203125 45.015625 
L 1.765625 45.015625 
L 1.765625 51.859375 
L 8.203125 51.859375 
L 8.203125 64.703125 
L 16.9375 69.96875 
L 16.9375 51.859375 
L 25.78125 51.859375 
L 25.78125 45.015625 
L 16.9375 45.015625 
L 16.9375 14.703125 
Q 16.9375 10.9375 17.40625 9.859375 
Q 17.875 8.796875 18.921875 8.15625 
Q 19.96875 7.515625 21.921875 7.515625 
Q 23.390625 7.515625 25.78125 7.859375 
z
" id="ArialMT-116"/>
      <path d="M 6.5 0 
L 6.5 51.859375 
L 14.40625 51.859375 
L 14.40625 44 
Q 17.4375 49.515625 20 51.265625 
Q 22.5625 53.03125 25.640625 53.03125 
Q 30.078125 53.03125 34.671875 50.203125 
L 31.640625 42.046875 
Q 28.421875 43.953125 25.203125 43.953125 
Q 22.3125 43.953125 20.015625 42.21875 
Q 17.71875 40.484375 16.75 37.40625 
Q 15.28125 32.71875 15.28125 27.15625 
L 15.28125 0 
z
" id="ArialMT-114"/>
      <path d="M 6.640625 61.46875 
L 6.640625 71.578125 
L 15.4375 71.578125 
L 15.4375 61.46875 
z
M 6.640625 0 
L 6.640625 51.859375 
L 15.4375 51.859375 
L 15.4375 0 
z
" id="ArialMT-105"/>
      <path d="M 0.734375 0 
L 19.671875 26.953125 
L 2.15625 51.859375 
L 13.140625 51.859375 
L 21.09375 39.703125 
Q 23.34375 36.234375 24.703125 33.890625 
Q 26.859375 37.109375 28.65625 39.59375 
L 37.40625 51.859375 
L 47.90625 51.859375 
L 29.984375 27.4375 
L 49.265625 0 
L 38.484375 0 
L 27.828125 16.109375 
L 25 20.453125 
L 11.375 0 
z
" id="ArialMT-120"/>
      <path id="ArialMT-32"/>
      <path d="M 42.09375 16.703125 
L 51.171875 15.578125 
Q 49.03125 7.625 43.21875 3.21875 
Q 37.40625 -1.171875 28.375 -1.171875 
Q 17 -1.171875 10.328125 5.828125 
Q 3.65625 12.84375 3.65625 25.484375 
Q 3.65625 38.578125 10.390625 45.796875 
Q 17.140625 53.03125 27.875 53.03125 
Q 38.28125 53.03125 44.875 45.953125 
Q 51.46875 38.875 51.46875 26.03125 
Q 51.46875 25.25 51.421875 23.6875 
L 12.75 23.6875 
Q 13.234375 15.140625 17.578125 10.59375 
Q 21.921875 6.0625 28.421875 6.0625 
Q 33.25 6.0625 36.671875 8.59375 
Q 40.09375 11.140625 42.09375 16.703125 
z
M 13.234375 30.90625 
L 42.1875 30.90625 
Q 41.609375 37.453125 38.875 40.71875 
Q 34.671875 45.796875 27.984375 45.796875 
Q 21.921875 45.796875 17.796875 41.75 
Q 13.671875 37.703125 13.234375 30.90625 
z
" id="ArialMT-101"/>
      <path d="M 6.390625 0 
L 6.390625 71.578125 
L 15.1875 71.578125 
L 15.1875 0 
z
" id="ArialMT-108"/>
     </defs>
     <g transform="translate(14.357813 152.205937)rotate(-90)scale(0.1 -0.1)">
      <use xlink:href="#ArialMT-109"/>
      <use x="83.300781" xlink:href="#ArialMT-97"/>
      <use x="138.916016" xlink:href="#ArialMT-116"/>
      <use x="166.699219" xlink:href="#ArialMT-114"/>
      <use x="200" xlink:href="#ArialMT-105"/>
      <use x="222.216797" xlink:href="#ArialMT-120"/>
      <use x="272.216797" xlink:href="#ArialMT-32"/>
      <use x="300" xlink:href="#ArialMT-101"/>
      <use x="355.615234" xlink:href="#ArialMT-108"/>
      <use x="377.832031" xlink:href="#ArialMT-101"/>
      <use x="433.447266" xlink:href="#ArialMT-109"/>
      <use x="516.748047" xlink:href="#ArialMT-101"/>
      <use x="572.363281" xlink:href="#ArialMT-110"/>
      <use x="627.978516" xlink:href="#ArialMT-116"/>
     </g>
    </g>
   </g>
   <g id="line2d_19">
    <path clip-path="url(#p6a666dfbf8)" d="M 62.024432 20.583636 
L 213.511356 217.354003 
L 214.901144 217.354003 
L 366.388068 20.583636 
L 366.388068 20.583636 
" style="fill:none;stroke:#1f77b4;stroke-linecap:square;stroke-width:1.5;"/>
   </g>
   <g id="line2d_20">
    <path clip-path="url(#p6a666dfbf8)" d="M 62.024432 129.038264 
L 366.388068 129.038264 
L 366.388068 129.038264 
" style="fill:none;stroke:#ff7f0e;stroke-linecap:square;stroke-width:1.5;"/>
   </g>
   <g id="line2d_21">
    <path clip-path="url(#p6a666dfbf8)" d="M 62.024432 20.583636 
L 84.261045 49.663861 
L 106.497657 78.248 
L 124.564905 101.635595 
L 173.207495 165.051195 
L 198.223685 197.298786 
L 213.511356 217.342047 
L 214.901144 217.342047 
L 235.747969 190.075998 
L 256.594793 163.268254 
L 274.662041 139.924744 
L 296.898653 110.739382 
L 314.965901 87.195277 
L 363.608492 24.240516 
L 366.388068 20.583636 
L 366.388068 20.583636 
" style="fill:none;stroke:#2ca02c;stroke-linecap:square;stroke-width:1.5;"/>
   </g>
   <g id="line2d_22">
    <path clip-path="url(#p6a666dfbf8)" d="M 62.024432 218.256364 
L 84.261045 218.129067 
L 116.226175 218.12817 
L 132.903635 218.202093 
L 142.632153 218.208975 
L 160.699401 218.130069 
L 191.274743 218.131176 
L 207.952203 218.192102 
L 219.070509 218.205514 
L 237.137757 218.131176 
L 266.323311 218.135119 
L 283.000771 218.182571 
L 295.508865 218.202093 
L 313.576113 218.132388 
L 341.371879 218.139973 
L 358.049338 218.173572 
L 366.388068 218.256364 
L 366.388068 218.256364 
" style="fill:none;stroke:#d62728;stroke-linecap:square;stroke-width:1.5;"/>
   </g>
   <g id="line2d_23">
    <path clip-path="url(#p6a666dfbf8)" d="M 62.024432 98.42363 
L 366.388068 98.42363 
L 366.388068 98.42363 
" style="fill:none;stroke:#9467bd;stroke-linecap:square;stroke-width:1.5;"/>
   </g>
   <g id="line2d_24">
    <path clip-path="url(#p6a666dfbf8)" d="M 62.024432 20.583636 
L 68.973373 27.540013 
L 73.142738 31.979735 
L 77.312103 36.761823 
L 81.481468 41.966183 
L 85.650833 47.62769 
L 89.820198 53.727654 
L 95.379351 62.406125 
L 110.667022 86.799594 
L 114.836387 92.865118 
L 119.005752 98.488466 
L 123.175117 103.655615 
L 127.344482 108.405579 
L 131.513847 112.821514 
L 138.462788 119.762336 
L 145.411729 126.73587 
L 149.581094 131.200172 
L 153.750459 136.014948 
L 157.919824 141.256766 
L 162.089189 146.956302 
L 166.258554 153.090184 
L 171.817707 161.799747 
L 185.71559 184.057519 
L 189.884955 190.224764 
L 194.05432 195.962169 
L 198.223685 201.241663 
L 202.39305 206.089664 
L 206.562414 210.579325 
L 212.121568 216.199431 
L 213.511356 217.571609 
L 214.901144 217.571609 
L 221.850086 210.579325 
L 226.01945 206.089664 
L 230.188815 201.241663 
L 234.35818 195.962169 
L 238.527545 190.224764 
L 242.69691 184.057519 
L 248.256063 175.318127 
L 260.764158 155.219146 
L 264.933523 148.955461 
L 269.102888 143.105744 
L 273.272252 137.712214 
L 277.441617 132.761547 
L 281.610982 128.19131 
L 287.170135 122.511012 
L 298.288442 111.380046 
L 302.457807 106.864264 
L 306.627172 101.982524 
L 310.796536 96.665165 
L 314.965901 90.890085 
L 319.135266 84.690065 
L 324.694419 75.922137 
L 337.202514 55.847028 
L 341.371879 49.614851 
L 345.541244 43.802322 
L 349.710609 38.446942 
L 353.879974 33.530971 
L 358.049338 28.988325 
L 363.608492 23.329319 
L 366.388068 20.583636 
L 366.388068 20.583636 
" style="fill:none;stroke:#8c564b;stroke-linecap:square;stroke-width:1.5;"/>
   </g>
   <g id="line2d_25">
    <path clip-path="url(#p6a666dfbf8)" d="M 62.024432 213.310805 
L 326.084208 213.239744 
L 366.388068 213.310805 
L 366.388068 213.310805 
" style="fill:none;stroke:#e377c2;stroke-linecap:square;stroke-width:1.5;"/>
   </g>
   <g id="line2d_26">
    <path clip-path="url(#p6a666dfbf8)" d="M 62.024432 218.256364 
L 67.583585 216.920848 
L 71.75295 216.149162 
L 75.922315 215.680745 
L 80.09168 215.540788 
L 84.261045 215.711211 
L 88.430409 216.14912 
L 92.599774 216.796361 
L 99.548716 218.149151 
L 100.938504 218.077753 
L 107.887446 216.736054 
L 112.05681 216.103749 
L 116.226175 215.686083 
L 120.39554 215.540145 
L 124.564905 215.707232 
L 128.73427 216.20265 
L 132.903635 216.996549 
L 138.462788 218.168499 
L 144.021941 216.846669 
L 148.191306 216.097819 
L 152.360671 215.656564 
L 156.530036 215.5436 
L 160.699401 215.738204 
L 164.868766 216.19595 
L 170.427919 217.111715 
L 175.987072 218.220618 
L 178.766649 217.723467 
L 184.325802 216.676768 
L 188.495167 216.059875 
L 192.664531 215.662852 
L 196.833896 215.54169 
L 201.003261 215.736025 
L 205.172626 216.25825 
L 209.341991 217.073699 
L 213.511356 218.080742 
L 214.901144 218.080742 
L 220.460297 216.774086 
L 224.629662 216.04865 
L 228.799027 215.634685 
L 232.968392 215.54856 
L 237.137757 215.767032 
L 241.307122 216.244203 
L 246.866275 217.177244 
L 252.425428 218.220618 
L 260.764158 216.618545 
L 264.933523 216.017535 
L 269.102888 215.641545 
L 273.272252 215.545441 
L 277.441617 215.767122 
L 281.610982 216.315927 
L 285.780347 217.152218 
L 289.949712 218.168499 
L 291.3395 217.993198 
L 296.898653 216.703165 
L 301.068018 216.00168 
L 305.237383 215.615105 
L 309.406748 215.555648 
L 313.576113 215.797666 
L 317.745478 216.29384 
L 323.304631 217.243489 
L 327.473996 218.077753 
L 328.863784 218.149151 
L 335.812726 216.796361 
L 339.982091 216.14912 
L 344.151455 215.711211 
L 348.32082 215.540788 
L 352.490185 215.680745 
L 356.65955 216.149162 
L 360.828915 216.920848 
L 366.388068 218.256364 
L 366.388068 218.256364 
" style="fill:none;stroke:#7f7f7f;stroke-linecap:square;stroke-width:1.5;"/>
   </g>
   <g id="line2d_27">
    <path clip-path="url(#p6a666dfbf8)" d="M 62.024432 83.979313 
L 75.922315 83.948081 
L 80.09168 83.576616 
L 85.650833 82.811358 
L 92.599774 81.839065 
L 96.769139 81.479371 
L 100.938504 81.393187 
L 105.107869 81.599282 
L 109.277234 82.052694 
L 123.175117 83.876877 
L 127.344482 84.072425 
L 132.903635 84.044878 
L 139.852576 83.988309 
L 149.581094 84.055912 
L 153.750459 83.821088 
L 157.919824 83.361281 
L 171.817707 81.545786 
L 175.987072 81.38696 
L 180.156437 81.521766 
L 184.325802 81.920834 
L 191.274743 82.915945 
L 196.833896 83.653845 
L 201.003261 83.987143 
L 205.172626 84.089499 
L 228.799027 83.902288 
L 232.968392 83.494063 
L 239.917333 82.4965 
L 245.476487 81.762806 
L 249.645851 81.444711 
L 253.815216 81.407681 
L 257.984581 81.659776 
L 262.153946 82.145937 
L 274.662041 83.821088 
L 278.831406 84.055912 
L 284.390559 84.057668 
L 292.729289 83.996522 
L 301.068018 84.072425 
L 305.237383 83.876877 
L 309.406748 83.450934 
L 317.745478 82.242769 
L 321.914843 81.726893 
L 326.084208 81.430351 
L 330.253573 81.418001 
L 334.422937 81.692531 
L 338.592302 82.193942 
L 349.710609 83.72534 
L 353.879974 84.019526 
L 358.049338 84.088026 
L 366.388068 83.979313 
L 366.388068 83.979313 
" style="fill:none;stroke:#bcbd22;stroke-linecap:square;stroke-width:1.5;"/>
   </g>
   <g id="line2d_28">
    <path clip-path="url(#p6a666dfbf8)" d="M 62.024432 20.583636 
L 66.193797 41.251112 
L 68.973373 53.435935 
L 70.363162 58.791666 
L 71.75295 63.592361 
L 73.142738 67.816557 
L 74.532526 71.460641 
L 75.922315 74.535313 
L 77.312103 77.062014 
L 78.701891 79.069685 
L 80.09168 80.592041 
L 81.481468 81.665426 
L 82.871256 82.327231 
L 84.261045 82.614784 
L 85.650833 82.564648 
L 87.040621 82.212205 
L 88.430409 81.591474 
L 89.820198 80.735075 
L 91.209986 79.674291 
L 93.989563 77.058827 
L 96.769139 73.974146 
L 106.497657 62.587649 
L 109.277234 60.046652 
L 110.667022 59.0341 
L 112.05681 58.233635 
L 113.446599 57.676864 
L 114.836387 57.396754 
L 116.226175 57.427672 
L 117.615964 57.805321 
L 119.005752 58.566504 
L 120.39554 59.748645 
L 121.785328 61.388994 
L 123.175117 63.523407 
L 124.564905 66.18463 
L 125.954693 69.400005 
L 127.344482 73.188611 
L 128.73427 77.55791 
L 130.124058 82.500146 
L 131.513847 87.988892 
L 134.293423 100.391823 
L 138.462788 121.190325 
L 141.242365 135.108062 
L 144.021941 147.915855 
L 145.411729 153.661331 
L 146.801518 158.881412 
L 148.191306 163.53924 
L 149.581094 167.618126 
L 150.970883 171.118375 
L 152.360671 174.053699 
L 153.750459 176.447701 
L 155.140248 178.330747 
L 156.530036 179.737389 
L 157.919824 180.704361 
L 159.309612 181.269123 
L 160.699401 181.468868 
L 162.089189 181.339889 
L 163.478977 180.91724 
L 164.868766 180.234588 
L 166.258554 179.324209 
L 167.648342 178.217073 
L 170.427919 175.530713 
L 173.207495 172.402867 
L 181.546225 162.517013 
L 184.325802 159.763303 
L 185.71559 158.611675 
L 187.105378 157.649252 
L 188.495167 156.906695 
L 189.884955 156.415945 
L 191.274743 156.210315 
L 192.664531 156.32452 
L 194.05432 156.794568 
L 195.444108 157.657473 
L 196.833896 158.950704 
L 198.223685 160.711295 
L 199.613473 162.974508 
L 201.003261 165.771975 
L 202.39305 169.129263 
L 203.782838 173.062875 
L 205.172626 177.576808 
L 206.562414 182.658947 
L 207.952203 188.277727 
L 210.731779 200.888541 
L 213.511356 214.717786 
L 214.901144 214.717786 
L 217.680721 200.888541 
L 220.460297 188.277727 
L 221.850086 182.658947 
L 223.239874 177.576808 
L 224.629662 173.062875 
L 226.01945 169.129263 
L 227.409239 165.771975 
L 228.799027 162.974508 
L 230.188815 160.711295 
L 231.578604 158.950704 
L 232.968392 157.657473 
L 234.35818 156.794568 
L 235.747969 156.32452 
L 237.137757 156.210315 
L 238.527545 156.415945 
L 239.917333 156.906695 
L 241.307122 157.649252 
L 242.69691 158.611675 
L 244.086698 159.763303 
L 246.866275 162.517013 
L 249.645851 165.684643 
L 256.594793 174.008242 
L 259.37437 176.942977 
L 260.764158 178.217073 
L 262.153946 179.324209 
L 263.543734 180.234588 
L 264.933523 180.91724 
L 266.323311 181.339889 
L 267.713099 181.468868 
L 269.102888 181.269123 
L 270.492676 180.704361 
L 271.882464 179.737389 
L 273.272252 178.330747 
L 274.662041 176.447701 
L 276.051829 174.053699 
L 277.441617 171.118375 
L 278.831406 167.618126 
L 280.221194 163.53924 
L 281.610982 158.881412 
L 283.000771 153.661331 
L 285.780347 141.704142 
L 288.559924 128.230357 
L 294.119077 100.391823 
L 296.898653 87.988892 
L 298.288442 82.500146 
L 299.67823 77.55791 
L 301.068018 73.188611 
L 302.457807 69.400005 
L 303.847595 66.18463 
L 305.237383 63.523407 
L 306.627172 61.388994 
L 308.01696 59.748645 
L 309.406748 58.566504 
L 310.796536 57.805321 
L 312.186325 57.427672 
L 313.576113 57.396754 
L 314.965901 57.676864 
L 316.35569 58.233635 
L 317.745478 59.0341 
L 319.135266 60.046652 
L 320.525054 61.240926 
L 323.304631 64.058466 
L 326.084208 67.262515 
L 333.033149 75.561325 
L 335.812726 78.439199 
L 337.202514 79.674291 
L 338.592302 80.735075 
L 339.982091 81.591474 
L 341.371879 82.212205 
L 342.761667 82.564648 
L 344.151455 82.614784 
L 345.541244 82.327231 
L 346.931032 81.665426 
L 348.32082 80.592041 
L 349.710609 79.069685 
L 351.100397 77.062014 
L 352.490185 74.535313 
L 353.879974 71.460641 
L 355.269762 67.816557 
L 356.65955 63.592361 
L 358.049338 58.791666 
L 359.439127 53.435935 
L 362.218703 41.251112 
L 364.99828 27.644265 
L 366.388068 20.583636 
L 366.388068 20.583636 
" style="fill:none;stroke:#17becf;stroke-linecap:square;stroke-width:1.5;"/>
   </g>
   <g id="text_21">
    <g id="patch_3">
     <path clip-path="url(#p6a666dfbf8)" d="M 63.76984 36.900337 
L 77.130294 54.252808 
L 90.715387 43.793029 
L 77.354933 26.440557 
z
" style="fill:#ffffff;stroke:#ffffff;stroke-linejoin:miter;"/>
    </g>
    <g clip-path="url(#p6a666dfbf8)">
     <!-- 0,0 -->
     <defs>
      <path d="M 8.890625 0 
L 8.890625 10.015625 
L 18.890625 10.015625 
L 18.890625 0 
Q 18.890625 -5.515625 16.9375 -8.90625 
Q 14.984375 -12.3125 10.75 -14.15625 
L 8.296875 -10.40625 
Q 11.078125 -9.1875 12.390625 -6.8125 
Q 13.71875 -4.4375 13.875 0 
z
" id="ArialMT-44"/>
     </defs>
     <g style="fill:#1f77b4;" transform="translate(70.954303 36.416965)rotate(-307.594305)scale(0.1 -0.1)">
      <use xlink:href="#ArialMT-48"/>
      <use x="55.615234" xlink:href="#ArialMT-44"/>
      <use x="83.398438" xlink:href="#ArialMT-48"/>
     </g>
    </g>
   </g>
   <g id="text_22">
    <g id="patch_4">
     <path clip-path="url(#p6a666dfbf8)" d="M 96.728443 137.60783 
L 118.628443 137.609194 
L 118.629511 120.463882 
L 96.729511 120.462517 
z
" style="fill:#ffffff;stroke:#ffffff;stroke-linejoin:miter;"/>
    </g>
    <g clip-path="url(#p6a666dfbf8)">
     <!-- 1,0 -->
     <g style="fill:#ff7f0e;" transform="translate(100.728816 131.620579)rotate(-359.99643)scale(0.1 -0.1)">
      <use xlink:href="#ArialMT-49"/>
      <use x="55.615234" xlink:href="#ArialMT-44"/>
      <use x="83.398438" xlink:href="#ArialMT-48"/>
     </g>
    </g>
   </g>
   <g id="text_23">
    <g id="patch_5">
     <path clip-path="url(#p6a666dfbf8)" d="M 124.664412 115.889362 
L 137.915945 133.325154 
L 151.56627 122.950648 
L 138.314736 105.514856 
z
" style="fill:#ffffff;stroke:#ffffff;stroke-linejoin:miter;"/>
    </g>
    <g clip-path="url(#p6a666dfbf8)">
     <!-- 1,1 -->
     <g style="fill:#2ca02c;" transform="translate(131.851761 115.450988)rotate(-307.235524)scale(0.1 -0.1)">
      <use xlink:href="#ArialMT-49"/>
      <use x="55.615234" xlink:href="#ArialMT-44"/>
      <use x="83.398438" xlink:href="#ArialMT-49"/>
     </g>
    </g>
   </g>
   <g id="text_24">
    <g id="patch_6">
     <path clip-path="url(#p6a666dfbf8)" d="M 157.527502 226.655443 
L 179.426672 226.846063 
L 179.575907 209.7014 
L 157.676737 209.51078 
z
" style="fill:#ffffff;stroke:#ffffff;stroke-linejoin:miter;"/>
    </g>
    <g clip-path="url(#p6a666dfbf8)">
     <!-- 2,0 -->
     <g style="fill:#d62728;" transform="translate(161.579466 220.702987)rotate(-359.501285)scale(0.1 -0.1)">
      <use xlink:href="#ArialMT-50"/>
      <use x="55.615234" xlink:href="#ArialMT-44"/>
      <use x="83.398438" xlink:href="#ArialMT-48"/>
     </g>
    </g>
   </g>
   <g id="text_25">
    <g id="patch_7">
     <path clip-path="url(#p6a666dfbf8)" d="M 188.077461 107.090057 
L 209.977231 106.989718 
L 209.898676 89.844585 
L 187.998906 89.944925 
z
" style="fill:#ffffff;stroke:#ffffff;stroke-linejoin:miter;"/>
    </g>
    <g clip-path="url(#p6a666dfbf8)">
     <!-- 2,1 -->
     <g style="fill:#9467bd;" transform="translate(192.049986 101.084293)rotate(-0.262514)scale(0.1 -0.1)">
      <use xlink:href="#ArialMT-50"/>
      <use x="55.615234" xlink:href="#ArialMT-44"/>
      <use x="83.398438" xlink:href="#ArialMT-49"/>
     </g>
    </g>
   </g>
   <g id="text_26">
    <g id="patch_8">
     <path clip-path="url(#p6a666dfbf8)" d="M 228.973193 216.054576 
L 243.025785 199.257711 
L 229.87567 188.256064 
L 215.823079 205.052929 
z
" style="fill:#ffffff;stroke:#ffffff;stroke-linejoin:miter;"/>
    </g>
    <g clip-path="url(#p6a666dfbf8)">
     <!-- 2,2 -->
     <g style="fill:#8c564b;" transform="translate(226.947583 209.144652)rotate(-50.083477)scale(0.1 -0.1)">
      <use xlink:href="#ArialMT-50"/>
      <use x="55.615234" xlink:href="#ArialMT-44"/>
      <use x="83.398438" xlink:href="#ArialMT-50"/>
     </g>
    </g>
   </g>
   <g id="text_27">
    <g id="patch_9">
     <path clip-path="url(#p6a666dfbf8)" d="M 248.882245 221.787889 
L 270.782123 221.860982 
L 270.839346 204.715765 
L 248.939468 204.642672 
z
" style="fill:#ffffff;stroke:#ffffff;stroke-linejoin:miter;"/>
    </g>
    <g clip-path="url(#p6a666dfbf8)">
     <!-- 3,0 -->
     <defs>
      <path d="M 4.203125 18.890625 
L 12.984375 20.0625 
Q 14.5 12.59375 18.140625 9.296875 
Q 21.78125 6 27 6 
Q 33.203125 6 37.46875 10.296875 
Q 41.75 14.59375 41.75 20.953125 
Q 41.75 27 37.796875 30.921875 
Q 33.84375 34.859375 27.734375 34.859375 
Q 25.25 34.859375 21.53125 33.890625 
L 22.515625 41.609375 
Q 23.390625 41.5 23.921875 41.5 
Q 29.546875 41.5 34.03125 44.421875 
Q 38.53125 47.359375 38.53125 53.46875 
Q 38.53125 58.296875 35.25 61.46875 
Q 31.984375 64.65625 26.8125 64.65625 
Q 21.6875 64.65625 18.265625 61.421875 
Q 14.84375 58.203125 13.875 51.765625 
L 5.078125 53.328125 
Q 6.6875 62.15625 12.390625 67.015625 
Q 18.109375 71.875 26.609375 71.875 
Q 32.46875 71.875 37.390625 69.359375 
Q 42.328125 66.84375 44.9375 62.5 
Q 47.5625 58.15625 47.5625 53.265625 
Q 47.5625 48.640625 45.0625 44.828125 
Q 42.578125 41.015625 37.703125 38.765625 
Q 44.046875 37.3125 47.5625 32.6875 
Q 51.078125 28.078125 51.078125 21.140625 
Q 51.078125 11.765625 44.234375 5.25 
Q 37.40625 -1.265625 26.953125 -1.265625 
Q 17.53125 -1.265625 11.296875 4.34375 
Q 5.078125 9.96875 4.203125 18.890625 
z
" id="ArialMT-51"/>
     </defs>
     <g style="fill:#e377c2;" transform="translate(252.902206 215.813773)rotate(-359.808771)scale(0.1 -0.1)">
      <use xlink:href="#ArialMT-51"/>
      <use x="55.615234" xlink:href="#ArialMT-44"/>
      <use x="83.398438" xlink:href="#ArialMT-48"/>
     </g>
    </g>
   </g>
   <g id="text_28">
    <g id="patch_10">
     <path clip-path="url(#p6a666dfbf8)" d="M 280.506051 228.000257 
L 302.233888 225.259619 
L 300.088267 208.249091 
L 278.36043 210.989729 
z
" style="fill:#ffffff;stroke:#ffffff;stroke-linejoin:miter;"/>
    </g>
    <g clip-path="url(#p6a666dfbf8)">
     <!-- 3,1 -->
     <g style="fill:#7f7f7f;" transform="translate(283.72531 221.559253)rotate(-7.18903)scale(0.1 -0.1)">
      <use xlink:href="#ArialMT-51"/>
      <use x="55.615234" xlink:href="#ArialMT-44"/>
      <use x="83.398438" xlink:href="#ArialMT-49"/>
     </g>
    </g>
   </g>
   <g id="text_29">
    <g id="patch_11">
     <path clip-path="url(#p6a666dfbf8)" d="M 310.783216 91.571592 
L 332.552723 89.184422 
L 330.683829 72.141272 
L 308.914323 74.528442 
z
" style="fill:#ffffff;stroke:#ffffff;stroke-linejoin:miter;"/>
    </g>
    <g clip-path="url(#p6a666dfbf8)">
     <!-- 3,2 -->
     <g style="fill:#bcbd22;" transform="translate(314.106725 85.183757)rotate(-6.257857)scale(0.1 -0.1)">
      <use xlink:href="#ArialMT-51"/>
      <use x="55.615234" xlink:href="#ArialMT-44"/>
      <use x="83.398438" xlink:href="#ArialMT-50"/>
     </g>
    </g>
   </g>
   <g id="text_30">
    <g id="patch_12">
     <path clip-path="url(#p6a666dfbf8)" d="M 353.403946 90.661637 
L 363.958565 71.472838 
L 348.935827 63.209722 
L 338.381208 82.398521 
z
" style="fill:#ffffff;stroke:#ffffff;stroke-linejoin:miter;"/>
    </g>
    <g clip-path="url(#p6a666dfbf8)">
     <!-- 3,3 -->
     <g style="fill:#17becf;" transform="translate(350.085477 84.271181)rotate(-61.187419)scale(0.1 -0.1)">
      <use xlink:href="#ArialMT-51"/>
      <use x="55.615234" xlink:href="#ArialMT-44"/>
      <use x="83.398438" xlink:href="#ArialMT-51"/>
     </g>
    </g>
   </g>
   <g id="patch_13">
    <path d="M 46.80625 228.14 
L 46.80625 10.7 
" style="fill:none;stroke:#000000;stroke-linecap:square;stroke-linejoin:miter;stroke-width:0.8;"/>
   </g>
   <g id="patch_14">
    <path d="M 381.60625 228.14 
L 381.60625 10.7 
" style="fill:none;stroke:#000000;stroke-linecap:square;stroke-linejoin:miter;stroke-width:0.8;"/>
   </g>
   <g id="patch_15">
    <path d="M 46.80625 228.14 
L 381.60625 228.14 
" style="fill:none;stroke:#000000;stroke-linecap:square;stroke-linejoin:miter;stroke-width:0.8;"/>
   </g>
   <g id="patch_16">
    <path d="M 46.80625 10.7 
L 381.60625 10.7 
" style="fill:none;stroke:#000000;stroke-linecap:square;stroke-linejoin:miter;stroke-width:0.8;"/>
   </g>
  </g>
 </g>
 <defs>
  <clipPath id="p6a666dfbf8">
   <rect height="217.44" width="334.8" x="46.80625" y="10.7"/>
  </clipPath>
 </defs>
</svg>
